<svg xmlns="http://www.w3.org/2000/svg" viewBox="0 0 43.48 38.8"><defs><style>.cls-1{fill:#0c7fc3;}.cls-2{fill:#fff;}.cls-3{fill:#ed2123;}</style></defs><title>자산 1메뉴</title><g id="레이어_2" data-name="레이어 2"><g id="레이어_1-2" data-name="레이어 1"><path class="cls-1" d="M1.17,33.7h.21c.69,0,1,0,1.73-.1l.23,0,.87,4.75-.27,0-1.15.1-.23,0-.13-.68-.4,0-.13.69H1.7l-1.1,0H.3Z"/><path class="cls-2" d="M3.13,33.85c.31,1.71.47,2.56.79,4.26l-1.15.11-.13-.68-.82.05-.13.69L.6,38.3c.31-1.74.47-2.61.78-4.35.7,0,1.05,0,1.75-.1M2,36.76l.54,0L2.26,35.2h0L2,36.76m1.57-3.45-.45,0c-.7.06-1,.08-1.72.1H1l-.07.4L.11,38.21,0,38.8H.6l1.11,0,.4,0,.07-.39.06-.27,0,.21.08.44.44,0c.47,0,.7-.05,1.17-.1l.53-.06L4.41,38l-.79-4.26-.08-.45Z"/><path class="cls-1" d="M4,33.51l.22,0c.47,0,.71-.09,1.17-.16l.29,0v3.37l.77-.13.32-.06-.1,1.42-.2.11c-.87.16-1.31.22-2.19.33l-.28,0Z"/><path class="cls-2" d="M5.45,33.57v3.37c.43-.06.64-.1,1.07-.18l-.07,1c-.87.15-1.31.22-2.18.32V33.73c.47,0,.71-.09,1.18-.16M6,33l-.58.09c-.46.07-.69.1-1.16.15l-.44.06v5.34l.56-.06c.86-.11,1.31-.17,2.2-.33l.39-.07,0-.39,0-.49,0-.49,0-.64-.63.11L6,36.35V33Z"/><path class="cls-1" d="M6.51,33.14l.21,0c.47-.08.7-.13,1.17-.23l.3-.06v3.36l1.09-.25-.11,1.51-.18,0c-.87.21-1.31.3-2.18.46l-.3.06Z"/><path class="cls-2" d="M7.94,33.11v3.37L9,36.24c0,.4,0,.6-.07,1-.87.2-1.31.3-2.18.46V33.35c.47-.09.71-.13,1.18-.24m.5-.61-.6.13-1.17.23-.41.07v5.36l.6-.11c.86-.16,1.29-.25,2.19-.46l.36-.09,0-.36,0-.5,0-.49,0-.68-.66.16-.45.1V32.5Z"/><path class="cls-1" d="M11.15,35.25l-1.08-2.9.26-.06,1.29-.36.25-.07.14.57.12-.65.15,0,1.23-.38.46-.15L12.81,35v1.46l-.18.05-1.17.34-.32.09Z"/><path class="cls-2" d="M13.59,31.6c-.41,1.32-.61,2-1,3.31v1.34l-1.17.34V35.25l-1-2.72,1.29-.36c.12.53.19.79.31,1.32h.05l.3-1.5,1.24-.38m.76-.77-.91.29-1.23.38-.29.08h0l-.37.11c-.51.15-.77.22-1.28.35l-.53.14.19.52,1,2.64v1.91l.64-.18,1.17-.34.36-.11V35l1-3.24.28-.91Z"/><path class="cls-1" d="M14.78,35.78a1.07,1.07,0,0,1-.82-.34,2.55,2.55,0,0,1-.46-1.75,3.73,3.73,0,0,1,.44-1.95,2.53,2.53,0,0,1,1.43-1.06,2.42,2.42,0,0,1,.78-.15,1.06,1.06,0,0,1,.76.28,2.42,2.42,0,0,1,.46,1.73,4,4,0,0,1-.43,2,2.48,2.48,0,0,1-1.43,1.12A2.34,2.34,0,0,1,14.78,35.78Zm.84-3.54-.1,0a.34.34,0,0,0-.24.21,2.49,2.49,0,0,0-.08.81v.17a1.82,1.82,0,0,0,.07.73l.11,0c.19-.06.23-.15.24-.19a2.4,2.4,0,0,0,.07-.78V33A2.09,2.09,0,0,0,15.62,32.24Z"/><path class="cls-2" d="M16.15,30.78a.82.82,0,0,1,.59.21,2.29,2.29,0,0,1,.38,1.55,3.84,3.84,0,0,1-.39,1.86,2.27,2.27,0,0,1-1.3,1,1.87,1.87,0,0,1-.65.13.8.8,0,0,1-.63-.26,2.37,2.37,0,0,1-.4-1.58,3.56,3.56,0,0,1,.4-1.82,2.3,2.3,0,0,1,1.3-.95,2.27,2.27,0,0,1,.7-.14m-.89,3.64a.54.54,0,0,0,.2,0,.59.59,0,0,0,.39-.34,2.71,2.71,0,0,0,.09-.86V33a2.08,2.08,0,0,0-.1-.83.21.21,0,0,0-.22-.13.45.45,0,0,0-.18,0,.58.58,0,0,0-.4.36,3,3,0,0,0-.09.89v.17a2.11,2.11,0,0,0,.1.85.21.21,0,0,0,.21.12m.89-4.14a2.67,2.67,0,0,0-.86.17,2.81,2.81,0,0,0-1.57,1.16,4,4,0,0,0-.47,2.08,2.79,2.79,0,0,0,.53,1.92,1.3,1.3,0,0,0,1,.42,2.49,2.49,0,0,0,.81-.15,2.77,2.77,0,0,0,1.57-1.23,4.23,4.23,0,0,0,.46-2.11,2.6,2.6,0,0,0-.53-1.9,1.28,1.28,0,0,0-.94-.36Z"/><path class="cls-1" d="M18.36,34.51a1.12,1.12,0,0,1-.5-.11,1.22,1.22,0,0,1-.52-1.17V30.07l1.71-.62v3.27a.45.45,0,0,0,0,.12,1.53,1.53,0,0,0,.19-.16.64.64,0,0,0,0-.24V29.36L21,28.74v3.34a2.15,2.15,0,0,1-.46,1.4,2.89,2.89,0,0,1-1.29.85A2.55,2.55,0,0,1,18.36,34.51Z"/><path class="cls-2" d="M20.72,29.1v3a1.88,1.88,0,0,1-.4,1.24,2.64,2.64,0,0,1-1.18.77,2.16,2.16,0,0,1-.78.17.86.86,0,0,1-.38-.08c-.26-.14-.39-.45-.39-1v-3l1.21-.43v2.91a.36.36,0,0,0,.09.29.14.14,0,0,0,.11,0,.45.45,0,0,0,.18,0,.56.56,0,0,0,.28-.2.75.75,0,0,0,.08-.37v-2.9l1.18-.44m.5-.71-.67.24-1.18.44-.33.12h0l-.41.15-1.2.43-.34.12v3.34a1.44,1.44,0,0,0,.65,1.39,1.38,1.38,0,0,0,.62.14,2.61,2.61,0,0,0,.95-.2,3.19,3.19,0,0,0,1.4-.93,2.37,2.37,0,0,0,.51-1.55V28.39Z"/><path class="cls-1" d="M23.6,32.6a1,1,0,0,1-.77-.32,2.48,2.48,0,0,1-.44-1.69,4.06,4.06,0,0,1,.42-1.94,2.47,2.47,0,0,1,1.41-1.17,2.59,2.59,0,0,1,.88-.17h.23l.27,0-.25,1.52-.22.1a2,2,0,0,0-.67.08.41.41,0,0,0-.27.27,2.52,2.52,0,0,0-.11.85,1.77,1.77,0,0,0,.09.71,2.62,2.62,0,0,0,.82-.39l.31-.19.28,1.43-.13.1a4.66,4.66,0,0,1-1.15.63A2.22,2.22,0,0,1,23.6,32.6Z"/><path class="cls-2" d="M25.1,27.56h.21l-.19,1.15a2.77,2.77,0,0,0-.75.09.71.71,0,0,0-.42.43,2.67,2.67,0,0,0-.12.93A1.91,1.91,0,0,0,24,31a.27.27,0,0,0,.24.15l.16,0a5.36,5.36,0,0,0,.78-.42c.07.37.1.56.18.92a4.27,4.27,0,0,1-1.1.6,1.67,1.67,0,0,1-.61.13.76.76,0,0,1-.59-.24,2.31,2.31,0,0,1-.37-1.52A3.87,3.87,0,0,1,23,28.76a2.3,2.3,0,0,1,1.28-1.05,2.25,2.25,0,0,1,.79-.15m0-.5h0a3,3,0,0,0-2.51,1.47,4.3,4.3,0,0,0-.45,2.06,2.7,2.7,0,0,0,.5,1.85,1.24,1.24,0,0,0,1,.41,2.17,2.17,0,0,0,.78-.16A5,5,0,0,0,25.6,32l.26-.19-.06-.31-.05-.24-.13-.68-.14-.72-.62.39-.51.29a3.59,3.59,0,0,1,0-.4,2.34,2.34,0,0,1,.09-.76.2.2,0,0,1,.12-.13,2.09,2.09,0,0,1,.59-.06h.42l.06-.41.09-.56.1-.59.08-.52-.52-.05-.26,0Z"/><path class="cls-1" d="M25.91,26.94l.14-.05,1.75-.61.27-.09L29,30.76l-.21.07-1.14.39-.27.09-.13-.64-.41.14-.13.73L25,32.12Z"/><path class="cls-2" d="M27.88,26.52c.31,1.63.47,2.44.78,4.07L27.51,31l-.13-.64-.81.28-.13.73-1.09.39c.31-1.85.47-2.77.78-4.62.7-.24,1.05-.37,1.75-.6m-1.16,3.23.53-.18c-.09-.59-.14-.88-.24-1.47l-.05,0c-.09.65-.14,1-.24,1.63m1.54-3.89-.54.18L26,26.65l-.27.1-.05.29L25,30.87l-.14.79-.14.84.81-.29,1.09-.39.27-.09.05-.29.07-.37v0l.12.56.54-.19,1.14-.38.42-.14-.09-.43-.78-4.08-.11-.56Z"/><path class="cls-1" d="M28.77,26l.17-.06,1.17-.37.21-.07.51,1.11V25.3l.18-.05,1.06-.31.32-.09v4.86l-.19.05-1.12.33-.2.06L30.32,29v1.28l-1.55.5Z"/><path class="cls-2" d="M32.14,25.18v4.34L31,29.85l-.89-1.75-.05,0v2L29,30.47V26.14l1.16-.38L31,27.59l0,0V25.49l1.06-.31m.5-.66L32,24.7,30.94,25l-.36.11v.32l-.13-.28-.42.13-1.17.37-.34.11v5.39l.66-.21,1-.33.35-.11v-.43l.18.37.4-.12L32.27,30l.37-.1V24.52Z"/><path class="cls-1" d="M33.94,24.45l.19-.05c1-.23,1.43-.34,2.39-.52l.32-.06-.1,1.6-.19,0c-.39.07-.61.11-.94.19v.13l1-.19V27l-1,.2v.2l.91-.18.32-.06-.1,1.51-.19,0c-.92.17-1.38.27-2.3.5l-.31.07Z"/><path class="cls-2" d="M36.57,24.13c0,.43,0,.65-.07,1.08l-1.14.23v.65l1-.2v.92l-1,.21v.71l1.21-.24c0,.4,0,.59-.07,1-.93.18-1.39.28-2.31.5V24.65c1-.24,1.43-.34,2.38-.52m.54-.61-.63.12c-.94.18-1.42.28-2.41.52l-.38.09v5.37l.62-.15c.94-.23,1.39-.33,2.28-.5L37,28.9l0-.38L37,28l0-.45,0-.64-.26.05V25.65l.12,0,0-.39.07-1.08,0-.64Z"/><path class="cls-1" d="M37.29,23.75l.17,0c.71-.12,1.06-.17,1.76-.25l.23,0,.88,4.75-.27,0c-.46,0-.69.07-1.14.13l-.23,0-.13-.67-.4.06-.13.7-.18,0c-.43.07-.65.1-1.09.19l-.35.06Z"/><path class="cls-2" d="M39.25,23.71c.31,1.7.47,2.55.78,4.26-.45,0-.68.07-1.14.13l-.13-.67-.82.12c0,.28-.07.42-.13.7l-1.09.19L37.5,24c.7-.11,1-.16,1.75-.25m-1.16,3,.53-.08c-.09-.61-.14-.91-.24-1.52h0l-.25,1.59m1.57-3.55-.47.06c-.69.08-1,.13-1.77.25l-.35.06-.06.35-.78,4.47-.13.71.71-.13c.43-.08.65-.12,1.08-.18l.35-.06.07-.35,0-.31,0,.16.09.46.46-.06,1.13-.12.55,0-.1-.54-.79-4.26-.08-.46Z"/><path class="cls-1" d="M40.65,24.88l-.86.08.1-1.57.21,0A27.81,27.81,0,0,1,43,23.24h.26l-.1,1.55h-.78v3.28h-.24l-1.17.06-.27,0Z"/><path class="cls-2" d="M42.93,23.49h0c0,.42-.05.63-.07,1.06h-.8v3.28l-1.18.06V24.62c-.34,0-.51,0-.84.07l.06-1.07a26.55,26.55,0,0,1,2.81-.13m.55-.5h-.55a25.4,25.4,0,0,0-2.85.14l-.43,0,0,.43,0,.29,0,.77,0,.59.58-.06.3,0v3.27l.54,0,1.15-.06h.49V25.05h.76l0-.47,0-.53,0-.53,0-.53Z"/><path class="cls-3" d="M.46,16.76h.75s0-6,0-6h.24c.8,0,1.2-.05,2-.13l.27,0v6.32a2,2,0,0,1-.5,1.52,2.67,2.67,0,0,1-1.71.51H.66Z"/><path class="cls-2" d="M3.47,10.83v6a1.75,1.75,0,0,1-.42,1.33,2.44,2.44,0,0,1-1.55.45H.89L.74,17h.4a.42.42,0,0,0,.26-.06.35.35,0,0,0,.06-.24V11c.8,0,1.21-.05,2-.13m.5-.55-.55.05c-.81.08-1.2.1-2,.13H1v6H.19l0,.54.06.62.09,1,0,.45H1.52a2.89,2.89,0,0,0,1.87-.58A2.22,2.22,0,0,0,4,16.87V10.28Z"/><path class="cls-3" d="M5.25,10.36l.18,0c1.25-.19,1.85-.31,3-.57l.25-.06,1.46,7.72-.23.06c-.8.21-1.21.3-2,.47L7.68,18l-.23-1.15-1,.19-.23,1.23-.17,0c-.77.13-1.16.18-1.93.27l-.33,0ZM6.8,15.05,7.14,15,7,13.92Z"/><path class="cls-2" d="M8.51,10c.55,2.9.82,4.35,1.37,7.24-.8.2-1.2.3-2,.47-.09-.46-.14-.69-.23-1.15-.57.12-.85.17-1.42.27-.09.49-.13.74-.23,1.23-.76.13-1.14.18-1.9.27.54-3.09.82-4.64,1.36-7.75,1.22-.18,1.83-.3,3.05-.58m-2,5.36.92-.18c-.17-1-.25-1.57-.42-2.62l-.08,0c-.17,1.11-.26,1.67-.42,2.78m2.41-6-.51.11c-1.17.27-1.77.39-3,.58L5,10.14,5,10.5c-.55,3.1-.82,4.66-1.37,7.74l-.11.66.66-.07c.75-.09,1.15-.14,1.94-.27l.34-.06.07-.35.16-.89.6-.11.13.66.09.49.5-.1c.79-.17,1.19-.26,2-.48l.46-.11-.09-.46C9.82,14.26,9.55,12.81,9,9.91L8.91,9.4Z"/><path class="cls-3" d="M10.25,9.32l.19-.05c1-.26,1.46-.4,2.43-.7a4.22,4.22,0,0,1,1.21-.21,1.69,1.69,0,0,1,.9.23c.5.31.74.95.74,2a3.72,3.72,0,0,1-.64,2.3,3.65,3.65,0,0,1-1.93,1.25l-.38.12v2.47l-.18.06c-.81.24-1.21.35-2,.57l-.32.08Zm2.52,2.94h0a.41.41,0,0,0,.29-.2,1.76,1.76,0,0,0,.09-.68,1.17,1.17,0,0,0-.08-.58h0l-.17,0-.11,0Z"/><path class="cls-2" d="M14.08,8.61a1.42,1.42,0,0,1,.77.19c.41.26.62.84.62,1.75a3.45,3.45,0,0,1-.59,2.15,3.42,3.42,0,0,1-1.81,1.16l-.55.17v2.48c-.81.24-1.21.35-2,.57V9.51c1-.26,1.47-.4,2.44-.7a4.15,4.15,0,0,1,1.14-.2m-1.56,4,.34-.1a.66.66,0,0,0,.44-.34,2.08,2.08,0,0,0,.11-.78,1.47,1.47,0,0,0-.12-.72.28.28,0,0,0-.24-.11.75.75,0,0,0-.24,0l-.29.09v1.92m1.56-4.48h0a4.46,4.46,0,0,0-1.29.22c-.95.29-1.43.43-2.41.7l-.38.1v8.6l.63-.17c.82-.22,1.22-.33,2-.58l.36-.1V14.4l.2-.06A3.94,3.94,0,0,0,15.28,13,4,4,0,0,0,16,10.55a2.34,2.34,0,0,0-.86-2.17,1.88,1.88,0,0,0-1-.27Z"/><path class="cls-3" d="M16.79,7.28l.13,0,3-1.1.27-.1,1.47,7.56-2.48.91L19,13.39l-1,.36L17.77,15l-.14,0c-.76.28-1.14.41-1.91.67l-.4.14Zm1.56,4.39.33-.13-.16-1Z"/><path class="cls-2" d="M20.06,6.36c.54,2.83.82,4.24,1.36,7.06l-2,.74c-.09-.44-.14-.66-.23-1.11l-1.41.51-.23,1.28-1.91.66c.55-3.21.82-4.82,1.37-8l3-1.1M18,12l.92-.33c-.16-1-.25-1.53-.42-2.55l-.08,0c-.17,1.14-.25,1.71-.42,2.85m2.39-6.35-.55.2c-1.21.45-1.82.67-3,1.1l-.28.1,0,.29-1.37,8-.14.83L15.8,16l1.92-.67.27-.1.05-.28.15-.85,0-.14.6-.22.11.54.12.57.54-.2L21.42,14l.18-.07.4-.14-.08-.42L20.55,6.27l-.12-.58Z"/><path class="cls-3" d="M21.8,5.45l2.4-.88,1.2,2.5V4.13l.16-.06,1.84-.64.33-.11v8.09l-.16.06-2,.69-.2.07L24.12,9.8v2.9l-2.32.85Z"/><path class="cls-2" d="M27.48,3.66v7.57l-2,.69L24,9l-.1,0v3.52l-1.82.67V5.63l2-.75L25.55,8l.1,0V4.31l1.83-.65M28,3l-.66.23-1.84.65L25.15,4V6l-.62-1.31-.2-.41-.43.16L22,5.11l-.14,0-.32.12v8.63l.67-.25.13,0L24,13l.33-.12V10.81c.21.4.43.81.7,1.35l.2.38.41-.14c.79-.29,1.18-.43,2-.69l.33-.12V3Z"/><path class="cls-3" d="M28.29,3.13l.17-.06c1.67-.56,2.51-.82,4.17-1.27L33,1.71l-.15,2.43-.17,0c-.73.2-1.12.32-1.8.52v.61c.49-.15.83-.24,1.4-.4l.32-.09V7l-.18,0c-.63.17-1,.27-1.54.44v.73l1.79-.51L33,7.57l-.16,2.27-.17.05c-1.6.43-2.41.69-4,1.22l-.33.11Z"/><path class="cls-2" d="M32.69,2c0,.76-.07,1.14-.12,1.9-.79.22-1.19.33-2,.58V5.65c.69-.21,1-.31,1.72-.5V6.76c-.69.19-1,.29-1.72.5V8.51c.84-.25,1.26-.38,2.1-.6,0,.69-.07,1-.12,1.73-1.61.45-2.42.7-4,1.24V3.31C30.2,2.76,31,2.5,32.69,2m.55-.66-.68.18c-1.66.45-2.5.71-4.18,1.27L28,3v8.62l.66-.22c1.61-.54,2.42-.79,4-1.22l.35-.1,0-.35.06-.84.06-.9.05-.7-.68.18-1.47.42V7.63l1.35-.39.37-.1V4.49l-.64.18L31.09,5V4.89c.57-.18.95-.29,1.61-.47l.35-.09,0-.36.06-.9.06-1,.05-.7Z"/><path class="cls-3" d="M33.75,9.5l-.51,0-.25,0,.17-2.34h.24l.79,0a4.07,4.07,0,0,0,.93-.07c.29-.06.31-.19.31-.31s0-.08-.13-.15a3.57,3.57,0,0,0-.61-.22,8.46,8.46,0,0,1-.8-.28,1.66,1.66,0,0,1-.78-.67,2.27,2.27,0,0,1-.31-1.22,3.31,3.31,0,0,1,.68-2.06A3.06,3.06,0,0,1,35.33,1a9.67,9.67,0,0,1,2-.22h.55l-.3,2.5h-.23l-.81,0a3.64,3.64,0,0,0-.76,0c-.36.08-.36.25-.36.34h0a.33.33,0,0,0,.11.06,5.59,5.59,0,0,0,.63.22,3.89,3.89,0,0,1,.81.32,1.89,1.89,0,0,1,.76.73,2.3,2.3,0,0,1,.3,1.2,3.11,3.11,0,0,1-.67,2.06A3.2,3.2,0,0,1,35.5,9.3,8.17,8.17,0,0,1,33.75,9.5Z"/><path class="cls-2" d="M37.34,1.05h.27c-.09.79-.14,1.19-.24,2l-.82,0a4,4,0,0,0-.81.06c-.38.07-.56.27-.56.58,0,.12.09.22.27.29a5.9,5.9,0,0,0,.65.23,4.08,4.08,0,0,1,.77.3,1.66,1.66,0,0,1,.65.64,2,2,0,0,1,.27,1.07,2.87,2.87,0,0,1-.61,1.9,3,3,0,0,1-1.73,1,8.35,8.35,0,0,1-1.7.19l-.49,0,.13-1.85.8,0a4.9,4.9,0,0,0,1-.07c.33-.08.5-.26.5-.56a.41.41,0,0,0-.27-.37,3.71,3.71,0,0,0-.65-.24A8,8,0,0,1,34,5.89a1.46,1.46,0,0,1-.66-.58,1.94,1.94,0,0,1-.27-1.08,3,3,0,0,1,.63-1.91,2.84,2.84,0,0,1,1.71-1.06,9,9,0,0,1,2-.21m0-.5h0a10.23,10.23,0,0,0-2.06.22,3.28,3.28,0,0,0-2,1.25,3.56,3.56,0,0,0-.73,2.21,2.5,2.5,0,0,0,.35,1.36,2,2,0,0,0,.89.76,7.48,7.48,0,0,0,.83.29,2.51,2.51,0,0,1,.51.18l-.06,0a4.44,4.44,0,0,1-.88.06l-.78,0-.49,0,0,.48,0,.71-.08,1.14,0,.5.5,0,.53,0a8.63,8.63,0,0,0,1.8-.2,3.52,3.52,0,0,0,2-1.14,3.4,3.4,0,0,0,.72-2.22A2.48,2.48,0,0,0,38,4.86,2.13,2.13,0,0,0,37.09,4a5,5,0,0,0-.85-.33l-.41-.13h0a5.35,5.35,0,0,1,.71,0l.79,0,.47,0,.06-.47.21-1.75,0-.24.06-.55h-.83Z"/><path class="cls-3" d="M38.26.6l.22,0A28.33,28.33,0,0,1,42.66.25h.27l-.15,2.37h-.23c-.71,0-1.1,0-1.74.08v.63c.53,0,.87-.06,1.46-.07h.26V5.36h-.24c-.6,0-.94,0-1.48.07v.75c.71-.05,1.12-.07,1.85-.07h.27l-.15,2.21h-.23a27.34,27.34,0,0,0-4,.32l-.29,0Z"/><path class="cls-2" d="M42.66.51c0,.74-.07,1.12-.12,1.86-.79,0-1.18,0-2,.09V3.6c.69-.06,1-.07,1.72-.09V5.12c-.69,0-1,0-1.72.09V6.46c.84-.07,1.26-.09,2.1-.09,0,.68-.07,1-.12,1.7a28.92,28.92,0,0,0-4,.32V.82A26.35,26.35,0,0,1,42.66.51M43.2,0h-.54a26.35,26.35,0,0,0-4.22.32L38,.39V9l.57-.07a27,27,0,0,1,4-.32H43l0-.46.06-.82.06-.89,0-.54h-.54c-.64,0-1,0-1.6,0V5.67c.42,0,.73,0,1.23,0h.49V3h-.51c-.49,0-.81,0-1.21.05V2.93c.52,0,.89-.05,1.49-.06H43l0-.47.08-1.26,0-.6,0-.54Z"/><path class="cls-3" d="M2.56,23.69c-.76,0-1.2.07-2,.07H.28l.21-3.34H.73a30.14,30.14,0,0,0,7.52-.91l.32-.08-.22,3.4-.18,0c-.79.17-1.22.25-1.95.38v8.81L6,32.1a30.53,30.53,0,0,1-3.18.38l-.27,0Z"/><path class="cls-2" d="M8.3,19.75c-.07,1.15-.11,1.72-.18,2.87-.86.19-1.29.27-2.15.41v8.82a28.08,28.08,0,0,1-3.16.38V23.42c-.9.07-1.36.09-2.27.09.08-1.14.11-1.7.19-2.84a30.16,30.16,0,0,0,7.57-.92m.54-.63-.65.14a29.62,29.62,0,0,1-7.46.91H.26l0,.46L0,23.47,0,24H.54c.71,0,1.16,0,1.77-.05v8.81l.54,0a28.74,28.74,0,0,0,3.2-.39l.42-.07V23.46c.6-.11,1-.19,1.75-.35L8.59,23l0-.37.1-1.55.09-1.33,0-.66Z"/><path class="cls-3" d="M10.24,19l.16,0c1.82-.48,2.72-.76,4.67-1.41l.27-.09,2.2,11.41-.2.07c-1.24.44-1.85.65-3.09,1.05l-.27.08-.35-1.72c-.66.21-1.08.34-1.77.53l-.35,1.94-.15,0c-1.15.33-1.74.48-2.95.75L8,31.71Zm2.11,7,.84-.25-.42-2.57Z"/><path class="cls-2" d="M15.15,17.8c.84,4.38,1.26,6.56,2.11,10.92-1.24.44-1.85.65-3.09,1.05L13.82,28c-.87.28-1.31.42-2.18.67l-.35,1.93c-1.17.33-1.76.48-2.94.75.85-4.85,1.27-7.28,2.11-12.17,1.88-.49,2.81-.79,4.69-1.42m-3.1,8.59c.57-.16.85-.25,1.42-.43l-.65-4-.13,0c-.25,1.74-.38,2.61-.64,4.35m3.48-9.24-.54.18c-1.93.64-2.83.92-4.66,1.41l-.31.08,0,.32C9.13,24,8.7,26.45,7.86,31.3L7.73,32l.73-.17c1.22-.27,1.81-.42,3-.75l.3-.08,0-.31.3-1.63c.53-.15.9-.26,1.36-.41l0,.19.2,1,.11.55.54-.17c1.21-.4,1.84-.61,3.09-1.06l.41-.14-.08-.42c-.84-4.36-1.27-6.55-2.11-10.92l-.11-.56Zm-2.87,8.54.12-.84.11.63,0,.13-.25.08Z"/><path class="cls-3" d="M18,16.56l.16-.06,3.09-1.13.66-.25a5.92,5.92,0,0,1,2-.42A2.25,2.25,0,0,1,25,15c.72.43,1.08,1.4,1.08,2.89a5.79,5.79,0,0,1-.95,3.48,6.2,6.2,0,0,1-2.9,2l-.69.25v3.81l-.34.12L18.3,28.62l-.33.12Zm3.6,4.3.18-.06a.88.88,0,0,0,.54-.44,2.92,2.92,0,0,0,.15-1.11,1.91,1.91,0,0,0-.14-.95.16.16,0,0,0-.13,0,1,1,0,0,0-.32.07l-.28.1Z"/><path class="cls-2" d="M23.86,15a2,2,0,0,1,1,.25q1,.57,1,2.67A5.53,5.53,0,0,1,25,21.2a5.8,5.8,0,0,1-2.79,1.92l-.85.32v3.8l-3.1,1.14V16.73L22,15.36A5.47,5.47,0,0,1,23.86,15m-2.54,6.27.52-.19a1.13,1.13,0,0,0,.68-.57,3.2,3.2,0,0,0,.17-1.21,2.16,2.16,0,0,0-.19-1.09.37.37,0,0,0-.33-.15,1.22,1.22,0,0,0-.41.09l-.44.16v3m2.54-6.77a6.21,6.21,0,0,0-2.07.44l-.68.25-3.06,1.12-.33.12V29.09l.67-.24,2.87-1.05.23-.09.33-.12V23.78l.1,0,.42-.16a6.35,6.35,0,0,0,3-2.1,6,6,0,0,0,1-3.62c0-1.58-.4-2.63-1.2-3.1a2.53,2.53,0,0,0-1.3-.32Zm-2,4.16.12,0a.74.74,0,0,1,.18-.06,2.71,2.71,0,0,1,.07.74,2.59,2.59,0,0,1-.13,1,.49.49,0,0,1-.24.23V18.61Z"/><path class="cls-3" d="M28,12.92l.15,0c1.91-.65,2.86-.94,4.7-1.44l.26-.07,0,.27c.85,4.43,1.27,6.65,2.11,11.12l0,.24-.23.05c-1.26.29-1.87.45-3.07.79l-.26.08-.35-1.74c-.66.19-1.08.32-1.77.54l-.35,2-.15,0c-1.17.38-1.75.59-2.93,1l-.4.15Zm2.12,6.93.83-.26L30.54,17Z"/><path class="cls-2" d="M32.92,11.68c.84,4.44,1.26,6.66,2.1,11.13-1.23.28-1.85.44-3.08.79l-.35-1.74c-.87.26-1.31.39-2.18.67l-.35,1.95c-1.18.39-1.76.59-2.94,1,.84-5,1.26-7.43,2.11-12.38,1.87-.63,2.81-.92,4.69-1.43m-3.11,8.53,1.43-.44-.65-4-.13,0-.65,4.37m3.5-9.15-.52.14c-1.85.5-2.8.79-4.72,1.44l-.29.1-.05.29L25.63,25.4l-.14.84.8-.28c1.21-.43,1.78-.63,2.92-1l.29-.09.05-.3.12-.67.18-1c.51-.17.88-.28,1.36-.42l.13.67.11.53.11.53.52-.15c1.19-.34,1.8-.5,3.05-.78l.47-.11-.09-.47c-.84-4.47-1.26-6.7-2.1-11.13l-.1-.53Zm-2.88,8.43.12-.83.12.76-.24.07Z"/><path class="cls-3" d="M37.36,22.63a14.21,14.21,0,0,1-1.61-.09l-.24,0,.24-3.33.25,0c1,.08,1.68.14,2.2.14a3.43,3.43,0,0,0,.5,0c.49-.06.56-.3.56-.54,0-.05,0-.21-.29-.39A5.86,5.86,0,0,0,38,18c-.4-.15-.81-.32-1.21-.51a2.71,2.71,0,0,1-1.12-1,3.4,3.4,0,0,1-.45-1.83,4.73,4.73,0,0,1,1-3A4.09,4.09,0,0,1,39,10a11.28,11.28,0,0,1,1.42-.09,12.18,12.18,0,0,1,2.08.18l.23,0-.43,3.52-.27-.06A10.93,10.93,0,0,0,40,13.34l-.32,0c-.57.06-.65.33-.65.57s.18.21.28.26c.28.14.6.29,1,.44a7.47,7.47,0,0,1,1.22.63,3.28,3.28,0,0,1,1.09,1.2A3.7,3.7,0,0,1,43,18.31a4.09,4.09,0,0,1-1,2.94,4.35,4.35,0,0,1-2.82,1.27A14.21,14.21,0,0,1,37.36,22.63Z"/><path class="cls-2" d="M40.45,10.18a11.69,11.69,0,0,1,2,.18c-.15,1.2-.22,1.8-.37,3A11.07,11.07,0,0,0,40,13.09l-.35,0c-.58.06-.87.34-.87.82,0,.18.14.35.42.49a10.38,10.38,0,0,0,1,.44,7.81,7.81,0,0,1,1.18.61,3,3,0,0,1,1,1.12,3.42,3.42,0,0,1,.42,1.72,3.88,3.88,0,0,1-.94,2.77,4.11,4.11,0,0,1-2.67,1.19,13.57,13.57,0,0,1-1.79.12,13.82,13.82,0,0,1-1.58-.1l.2-2.84c1,.09,1.69.15,2.23.15a3.84,3.84,0,0,0,.52,0c.52-.07.78-.32.78-.79a.73.73,0,0,0-.42-.61,5.9,5.9,0,0,0-1-.46,12,12,0,0,1-1.19-.49,2.49,2.49,0,0,1-1-.95,3.15,3.15,0,0,1-.41-1.7,4.44,4.44,0,0,1,1-2.87,3.8,3.8,0,0,1,2.63-1.43,10.7,10.7,0,0,1,1.39-.09m0-.5A11.76,11.76,0,0,0,39,9.77a4.31,4.31,0,0,0-3,1.61A5,5,0,0,0,35,14.57a3.61,3.61,0,0,0,.49,2,2.89,2.89,0,0,0,1.22,1.14,13,13,0,0,0,1.24.51,6.13,6.13,0,0,1,.92.42s.17.11.17.18,0,.25-.34.29a3,3,0,0,1-.46,0C37.69,19.1,37,19,36,19l-.51-.05,0,.51-.1,1.5-.1,1.33,0,.48.47.06a13.92,13.92,0,0,0,3.49,0,4.62,4.62,0,0,0,3-1.35,4.36,4.36,0,0,0,1.08-3.11,4,4,0,0,0-.48-2,3.45,3.45,0,0,0-1.18-1.29,7.94,7.94,0,0,0-1.26-.65c-.41-.17-.72-.3-1-.43l-.15-.09c0-.11.05-.23.43-.27l.29,0a10.49,10.49,0,0,1,2.06.27l.53.11.07-.54.08-.66L43,10.42,43,10l-.47-.08a11.69,11.69,0,0,0-2.12-.19Z"/></g></g></svg>