<?xml version="1.0" encoding="utf-8"?>
<!-- Generator: Adobe Illustrator 22.1.0, SVG Export Plug-In . SVG Version: 6.00 Build 0)  -->
<svg version="1.1" id="Layer_1" xmlns="http://www.w3.org/2000/svg" xmlns:xlink="http://www.w3.org/1999/xlink" x="0px" y="0px"
	 viewBox="0 0 566.9 566.9" style="enable-background:new 0 0 566.9 566.9;" xml:space="preserve">
<style type="text/css">
	.st0{fill:#ED1B23;}
</style>
<g>
	<path class="st0" d="M318.2,386c0.1,0.1,0.2,0.2,0.2,0.3c0-0.2,0-0.4,0-0.6C318.4,385.8,318.3,385.9,318.2,386z"/>
	<path class="st0" d="M324.7,421.4c0,0,0,0.1,0,0.1C324.7,421.5,324.7,421.4,324.7,421.4C324.7,421.4,324.7,421.4,324.7,421.4z"/>
	<path class="st0" d="M325,423c0,0,0.1,0.1,0.1,0.1c-0.1-0.2-0.1-0.5-0.2-0.7C325,422.6,325,422.8,325,423z"/>
	<path class="st0" d="M313.5,391.5c-0.3-1.1-0.5-2.3-0.6-3.4c-0.3,1.1-0.6,2.3-0.8,3.5c-0.1,2.5-0.8,5.2-1.3,7.5
		c-0.7,3.3-0.8,7-1.6,10.3c0.8,0,1.6,0,2.3,0c1.7,0,3.4-0.2,5.1-0.1c-0.3-2.4-0.5-4.6-1-6.5C314.7,399.2,313.9,395.3,313.5,391.5z"
		/>
	<path class="st0" d="M305,423C305,423,305,423,305,423c0,0,0-0.1,0-0.2C305,422.9,305,422.9,305,423z"/>
	<path class="st0" d="M325.5,424.4c0,0,0.1,0,0.1,0C325.6,424.4,325.5,424.3,325.5,424.4C325.5,424.3,325.5,424.4,325.5,424.4z"/>
	<path class="st0" d="M176.4,383.6C176.5,383.6,176.5,383.6,176.4,383.6C176.3,383.2,176.2,383.2,176.4,383.6z"/>
	<path class="st0" d="M213.4,423.4c0.1-0.3,0.1-0.6,0.1-0.9c0,0-0.1,0-0.1,0C213.4,422.8,213.5,423.1,213.4,423.4z"/>
	<path class="st0" d="M166.1,405.9c0.1,0,0.3,0,0.4,0c-0.1,0-0.3,0-0.4-0.1C166.1,405.9,166.1,405.9,166.1,405.9z"/>
	<path class="st0" d="M369.2,386.8c-0.3-0.3-0.7-0.5-1.1-0.7c-1.3,0.1-2.7-0.2-4-0.2c-1.3,0-2.8,0.1-4.2-0.1c0,0.1,0,0.2,0,0.3
		c0.1,0.6,0.2,1.2,0.3,1.8c0.5,2.2,0.5,4.6,0.4,6.9c0.3,2.3,0.5,4.7,0.7,7.1c1.8,0,3.6,0.1,5.1-0.1c0.5,0,0.8-0.2,1.2-0.3
		c0.7-0.4,1.4-0.8,1.9-1.4c2.1-2.1,1.9-4.3,2-7C371.5,390.5,370.7,388.5,369.2,386.8z"/>
	<path class="st0" d="M408.9,423.4c0.1-0.3,0.1-0.6,0.1-0.9c-0.1,0-0.1,0-0.1,0C409,422.8,409,423.1,408.9,423.4z"/>
	<path class="st0" d="M279.4,36.2C155.2,37,54.6,86.9,54.8,240.6C55,386,145.3,506.8,260.2,518.8c-4.6-0.1-9.3-0.3-14-0.2
		c-8.9,0.1-22.1,0.5-30.4-3.1c-0.1,0-0.1,0,0,0.1c6.9,3.5,17,5.5,24.6,7.1c10.9,2.3,22.8,3.2,34,3c10.6-0.2,21.4-2.3,32-5.5
		c-3.5,1.3-7,2.5-10.1,4.3c-1,0.2-2,0.3-3,0.5c-9.5,1.9-24.8,4.8-34.6,2.2c-0.1,0-0.1,0.1,0,0.1c7.3,2.4,17.5,2.9,25.4,3.3
		c10.8,0.6,22.1-0.2,32.8-2c22.9-3.6,47.6-16.9,65-31.5c3.1-2.6,6.2-5.2,9.2-7.9c-0.9,1.2-1.7,2.5-2.6,3.7
		c-9.1,8.5-18.5,16.4-27.8,23.7c-0.2,0.2,0,0.5,0.3,0.4c26.4-13.7,49.9-36.4,68.1-59.4c2.9-3.6,5.6-7.5,8.1-11.5
		c1.5-1.8,2.9-3.7,4.3-5.7c0,0.1-0.1,0.2-0.1,0.2c-5.6,10.7-12.6,28.1-22.7,35.3c-0.2,0.1,0,0.4,0.2,0.3c9.5-5.8,15.3-16.2,22-24.6
		c8.9-11.3,15.8-26.5,22-39.4c1.3-2.7,2.5-5.4,3.6-8.2c9.5-18.2,17.1-37.3,22.1-57.4c1.8-7.2,3.6-14.4,5.2-21.7
		c7.2-27.6,11.2-57,11.1-87.4C504.4,83.8,403.7,35.3,279.4,36.2z M294.8,162c1.4-1,1.2-4.6,2.1-6.2c1.6-2.9,3-5.9,4.9-8.6
		c3.7-5.3,8.3-11.1,13.5-15c4.4-3.3,9.5-8.4,15-12c3.3-2.6,6.9-4.9,10.7-6.4c5.4-2.1,12.1-0.9,15.7,4c0.7,0.9,1.2,1.9,1.7,2.9
		c2.1,3.9,1.2,10.1-1.6,13.4c-8.2,9.5-19.8,18.5-30.9,24.3c-0.2,0.1-0.4,0.2-0.6,0.3c-0.8,0.6-1.7,1.2-2.5,1.8
		c-3.5,2.5-6.7,4.4-10,5.9c-0.4,0.2-0.8,0.5-1.2,0.7c-0.4,0.2-0.8,0.3-1.2,0.4c-4.5,1.8-9.3,3-14.8,3.8c-0.4,0.1-0.7-0.5-0.3-0.8
		c1.3-0.9,2.6-1.7,3.9-2.6c-0.2-0.3-0.4-0.6-0.4-1c-0.7-3.7,0.8-6.6,2.1-9.7c-0.4,0.4-0.7,0.9-1.1,1.3c-1.3,1.7-2.5,3.4-4.6,4.1
		C294.8,162.8,294.4,162.2,294.8,162z M169.4,131.5c0.8-0.8,1.8-1.4,2.7-2.1c3.6-2.6,9.8-2.5,13.5,0c2,1.3,4,2.8,5.9,4.3
		c1.6,0.6,3.1,1.3,4.2,2.4c3.9,4.1,8,7.9,11.8,12.1c6.8,7.5,13.3,13.7,18.6,22.3c0.7,0.8,1.4,1.6,2.1,2.4c1.2,1.4,1.5,3.2,2.9,4.6
		c0.3,0.3,0,0.7-0.4,0.5c-1.3-1-2.2-2.3-3.3-3.6c-0.5-0.5-1.3-0.9-2.2-1.2c0.5,2,0.8,4,1.9,5.6c1.1,1.6-0.1,3.6-1.7,4.2
		c-4.6,1.5-8.4-0.8-13-1.6c-6.3-1-10.5-4-15.7-7.5c-10.6-7.1-23.3-14.7-29.4-26.2C164.6,142.4,164.9,135.6,169.4,131.5z
		 M155.8,346.6c-0.3,0-0.2-0.5,0.1-0.5C156.2,346.2,156.1,346.6,155.8,346.6z M183.1,403.8c0.1,1.3,0.1,2.6,0,3.9
		c-0.1,0.7,0,1.7-0.2,2.5c0.2,3.9,0.2,7.8-0.4,11.7c0.1,1.1,0.1,2.2-0.3,3.2c0,0.1-0.1,0.1-0.1,0c-0.1-0.3-0.2-0.7-0.2-1.1
		c-0.4,1.3-2.1,2.2-3.4,1.9c-1.8-0.3-3-2-2.9-3.6c-0.2-1.3-0.2-2.7-0.2-3.4c-0.1-3.2,0.1-6.5-0.2-9.7c-0.1-1.1-0.2-2.1-0.3-3.1
		c-1.5,0-3-0.1-4.3-0.2c-0.6,0-1.2,0-1.8-0.1c-0.3,0.1-0.6,0.3-0.9,0.3c-0.3,0-0.6-0.1-0.8-0.1c-0.3,0-0.5,0.1-0.8,0.1
		c0,1,0,1.9-0.2,2.9c0.2,2.1,0.3,4.3,0.1,6.4c0,0.3,0,0.8,0,1.3c0,0.1,0,0.2,0,0.3c0,1.4,0.1,3.1-0.2,4.3c0,0.9-0.2,1.7-0.4,2.5
		c0,0.4,0,0.9-0.4,1.3c0,0-0.1,0-0.1,0c-0.2-0.2-0.2-0.5-0.2-0.8c-0.8,1.6-2.6,2.1-4.7,1.5c-2.6-0.7-1.9-7.7-2.1-9.6
		c-0.2-2-0.8-6.2-0.2-9c-0.2-7.3-1-14.5-0.4-21.8c-0.1-1,0.1-2,0.3-2.8c-0.1-0.3-0.1-0.5,0-0.9c0.1-0.4,0.5-0.7,0.9-0.7
		c0.1,0,0.2,0,0.3,0c0.6-0.2,1.3-0.2,2,0.1c0.4-0.1,0.8-0.2,1.1-0.2c0.9-0.3,1.8-0.5,2.3,0.1c0.7,1,0.8,2.3,0.7,3.6
		c0.2,0.9,0.2,1.7,0.2,2.4c-0.2,4,0.2,8.4,0.2,12.7c1.3,0,2.7,0.1,3.9,0.1c1.9,0,3.8,0,5.7,0.1c0-3,0.2-6,0.3-9
		c0-2.6-0.5-6.1,0.2-8.5c0.1-0.4,0.4-0.7,0.8-0.8c1.6-0.3,4.5-0.7,5.8,0.7c0.1-0.2,0.1-0.4,0.3-0.5c0,0,0.1,0,0.1,0
		c0.1,0,0.2,0.1,0.3,0.1c0.3,0.1,0.5,0.4,0.5,0.7c0.4,3,0.1,6.3-0.1,9.5C183.5,395.8,183.4,399.8,183.1,403.8z M218.7,420
		c0,1.6,0,4.1-0.8,5.5c-0.6,1.1-2.7,1.1-4,0.5c0,0,0,0-0.1,0c-1.4,0-2.4-1.3-2.9-2.9c-0.1,0.5-0.2,1-0.3,1.5c0,0.1-0.1,0.1-0.2,0
		c-1.6-5.6-1-11.9-1.8-17.7c-0.9-6.5-0.7-13.8-0.7-20.3c0-3.1-0.3-6,3.5-6.1c3.1,0,5-0.3,6.4,2.8c0.2,0.4,0.2,0.7,0.2,1
		c0.7,1.7,0.4,4.3,0.5,5.5c0,1.1,0,2.3-0.1,3.4c0.4,6.3,0.6,12.5,0.4,18.9c0,0.7,0,1.6,0,2.4C219,416.3,218.7,418.3,218.7,420z
		 M276,381.4c-0.6,1.1-1.5,2-2.3,2.8c-0.3,0.6-0.7,1.1-1.1,1.6c-0.1,0.2-0.2,0.4-0.3,0.6c-0.4,0.5-0.9,0.9-1.4,1.4
		c-0.4,0.8-1.2,1.8-1.7,2.3c-1.7,2-3,4.2-4.5,6.3c-0.9,1.2-2.5,2.7-3.2,4c-0.2,0.4-0.6,0.7-0.9,1.1c1.6,1.9,4.1,6.3,4.7,7.4
		c1.1,1.5,2.2,3,3.2,4.5c2.5,3.7,5.6,6.7,7.2,10.9c0.2,0.6-0.5,1.1-1,0.8c-0.5-0.3-1-0.7-1.4-1.1c0.1,1.8-3.2,1.5-4.3,1.4
		c-0.1,0-0.2-0.1-0.4-0.1c-0.3,0-0.6,0-0.8-0.2c0,0,0,0-0.1-0.1c-0.6-0.2-1.1-0.6-1.6-1c-0.3-0.3-0.5-0.6-0.7-1
		c-2.5-2.6-4.4-5.9-6.3-8.8c-1.7-2.6-3.4-5.3-5.2-7.9c-0.1-0.1-0.2-0.3-0.3-0.4c0,6.7-0.3,13.6-1.3,20.2c-0.1,0.4-0.8,0.4-0.8,0
		c-0.1-0.5-0.1-0.9-0.2-1.4c-0.6,1.1-1.7,1.5-2.9,1.1c-0.2,0.1-0.4,0.2-0.6,0.1c-1.3-0.4-2.6-1.5-2.7-2.9c-0.4-1.1-0.5-2.3-0.6-3.5
		c-0.1-5.7-0.2-11.3-0.5-17c-0.3-4.8-0.4-9.7-0.4-14.5c0-2.5-0.5-5,1.1-7c0.1-0.1,0.1-0.1,0.2-0.1c0.2-0.5,0.6-0.9,1.2-1
		c2.2-0.1,6.2-1.2,7.2,1.7c0.3,1,0.3,2.1,0.2,3.2c0.7,3.8,0.3,8.4,0.1,12.4c2.2-3.1,4.6-5.9,6.6-9.1c0.9-1.5,2-2.9,3.1-4.3
		c0.4-0.5,0.7-0.9,1-1.1c0.6-1.1,1.4-2.2,2.4-2.4c1.9-0.3,3.7,0,5.5,0c0.7,0,1.3,0.6,1.3,1.3c0,0.4-0.1,0.8-0.2,1.1
		c0.2-0.1,0.4-0.3,0.6-0.4c0.6-0.5,1.1-1.1,1.8-1.4C275.8,380.8,276.2,381.1,276,381.4z M327.7,425.4c-0.1,0.4-0.5,0.7-0.9,0.5
		c-0.9-0.3-1.9-0.4-2.7-0.9c-1,0.9-2.3,0.8-3.7,0.7c-0.5,0-1.1-0.4-1.3-1c-0.1-0.3-0.1-0.6,0-0.9c-0.2,0.5,0,0.2-0.2-0.4
		c-0.3-1.1-0.5-2.3-0.7-3.4c-0.2-1.2-0.5-2.4-0.7-3.7c-2.2,0.2-4.6,0-6.8,0c-1,0-2.1,0.1-3.2,0.1c-0.8,3.1-1.1,6.3-2.1,9.5
		c-0.1,0.2-0.3,0.1-0.3,0c-0.1-0.5,0-1.1-0.1-1.7c0,0.2,0,0.4-0.2,0.6c-1,1.4-1.9,1.2-3.4,1.3c-0.7,0.1-1.4,0.2-2-0.2
		c-0.2-0.2-1.1-0.5-0.4-0.3c-0.4-0.1-0.7-0.4-0.9-0.7c-0.1,0.2-0.3,0.4-0.5,0.3c0,0,0,0,0,0c-0.1,0.1-0.3,0.1-0.3,0
		c-0.3-0.5-0.2-1.3-0.1-2c-0.1-3.9,0.9-7.9,1.7-11.6c0.6-2.6,1-5.6,1.9-8.3c0.1-0.8,0.3-1.5,0.3-2.2c0.3-3.4,1.1-6.7,2-10
		c0.1-0.5,0.3-1,0.4-1.5c0.4-2.7,0.9-5.3,2.1-7.6c0.2-0.5,0.6-0.7,0.9-0.9c0.3-0.3,0.6-0.4,1-0.5c0.2,0,0.4,0,0.7,0
		c0.8-0.3,1.4-0.2,2.1,0c0.9,0,1.8-0.1,2.7-0.1c1-0.1,2.1-0.1,3.2,0.1c1-0.2,1.9-0.3,3-0.2c0.4,0,0.7,0.2,0.9,0.4
		c0.2,0,0.4,0.1,0.5,0.3c0,0.1,0,0.1,0.1,0.2c0.5,0.6,0.7,1.4,0.7,2.2c1,3.7,1.3,7.8,1.7,11.5c0.7,2.2,1.2,4.5,1.6,6.9
		c0.2,1,0.4,1.9,0.4,2.7v0c0.1,0.4,0.1,0.9,0.2,1.3c0.6,5,2.1,10.1,2.3,15.1C327.8,422.7,328.2,424.3,327.7,425.4z M382.9,425.5
		c-0.2-0.2-0.3-0.4-0.5-0.6c-0.1,0.3-0.4,0.5-0.8,0.7c-0.1,0-0.4,0.1-0.6,0.1c-0.3,0.2-0.6,0.4-1,0.3c-0.6-0.1-1.2-0.2-1.8-0.2
		c-0.5,0-1,0-1.5-0.1c-0.7,0-1.3-0.1-2-0.3c-0.3,0-0.4-0.2-0.4-0.4c0,0-0.1,0-0.1,0c-3.3-3.6-6-7.8-8.7-11.9c-1.3-1.2-3-2.8-4-4.4
		c0,2.7,0,5.3-0.2,7.9c0.2,2.9,0.7,6.1,0.1,9c-0.1,0.3-0.5,0.3-0.6,0c-0.2-0.8-0.2-1.7-0.3-2.6c0,0.2-0.1,0.5-0.1,0.7
		c0.4,0.7,0,1.7-0.9,1.7c-0.1,0-0.1,0-0.2,0c-1.6,1-4.5,0.9-5.8,0.2c-0.4-0.2-0.8-0.8-0.7-1.3c0.1-0.7,0.1-1.5,0.2-2.2h0
		c-0.3-6.6-0.8-13.1-0.8-19.7c0-2.8-0.2-6,0-9.1c0-0.2,0-0.5,0-0.7c-0.1-0.5-0.2-1.1-0.1-1.5c-0.1-0.8,0-1.6,0.1-2.4
		c0-0.5,0-1,0-1.6c-0.1-1.9-0.6-3.9,0.3-5.6c0.1-0.2,0.5-0.2,0.7,0c0.2,0.4,0.3,0.7,0.4,1.1c0,0,0.1-0.1,0.1-0.1
		c-0.1-0.2,0-0.5,0.2-0.6c1.7-1.5,4.2-1.6,6.4-1.7c1,0,2.1,0,3.2,0c1.8-0.2,3.9,0,5.1,0c2.1,0,4.3,0.7,6.2,2
		c1.2,0.4,2.1,1.2,2.9,2.3c-0.5-1-1-1.9-1.7-2.8c0,0,0-0.1,0.1-0.1c3.8,2.2,5.2,8.4,4.4,12.7c-0.5,2.9-1.4,8.3-4.5,9.6
		c-0.6,0.5-1.3,0.9-2.2,1.5c-0.3,0.2-0.8,0.4-1.3,0.5c0,0-0.1,0-0.1,0c0,0,0,0,0,0c-0.1,0-0.1,0-0.2,0c-0.1,0-0.3,0.1-0.5,0.2
		c-0.4,0.2-0.9,0.3-1.4,0.4c1.8,2.1,3.3,4.6,4.6,6.9c0.2,0.2,0.3,0.5,0.5,0.7c1.6,2,3.4,3.9,4.7,6.2c1.4,1.4,2.3,2.9,3.6,4.6
		C383.8,425.4,383.2,425.9,382.9,425.5z M414.2,420c0,1.6,0,4.1-0.8,5.5c-0.6,1.1-2.7,1.1-4,0.5c0,0,0,0-0.1,0
		c-1.4,0-2.4-1.3-2.8-2.9c-0.1,0.5-0.2,1-0.3,1.5c0,0.1-0.1,0.1-0.2,0c-1.6-5.6-1-11.9-1.8-17.7c-0.9-6.5-0.7-13.8-0.7-20.3
		c0-3.1-0.3-6,3.5-6.1c2.7,0,4.6-0.3,5.9,2c0-0.6,0-1.2,0.1-1.7c0-0.1,0.1-0.1,0.1,0c0.1,0.3,0.1,0.6,0.1,0.9l0,0
		c1,2.8,1.2,6.6,0.9,9.5c-0.1,1.5-0.1,3-0.1,4.5c0.3,5.5,0.5,10.9,0.3,16.5c0,0.7,0,1.6,0,2.4C414.5,416.3,414.2,418.3,414.2,420z
		 M425.5,306.6c-0.2,2.4-0.8,4.7-2,6.7c-1.9,6.8-6.6,13.2-12.4,18c-0.5,0.6-1,1.2-1.5,1.7c-16.9,17-62.1,7.6-81.4,1.3
		c-20.8-6.8-39-20.7-52.8-38.3c2.8,5,5.9,10,9.5,13.9c3.3,3.6,5.7,5.1,8,9c0.1,0.1-0.1,0.2-0.2,0.1c-5.1-4.5-11.3-7.3-15.8-12.6
		c-5.4-6.3-10.2-12.7-15.1-19.4c-1.4-1.9-2.8-4.1-4.1-6.5c-21,35.3-50.4,69-94.7,67.5c0,0.1-0.1,0.3-0.2,0.2c-0.1,0-0.2-0.1-0.2-0.3
		c-0.5,0-1.1,0-1.6-0.1c-3-0.2-2.6-4.3-0.1-5c9.6-2.3,18.7-8.1,26.9-15.4c-5.4,2.7-11,4.8-15.6,6.5c-0.5,0.2-1-0.5-0.5-0.9
		c12.1-8.3,24.2-17.2,34-28.1c4.9-6.6,9.8-13.2,14.3-19.9c0.6-1,1.2-2,1.8-3c6.1-12.3,10.4-25.5,13.1-39c-2.6,0.5-5.2,1-7.8,1.5
		c-23.4,4.3-49.8,7.7-69.2-8.7c-9.8-8.3-11.6-21.4-6-32.5c0.4-0.8,1.3-0.9,1.9-0.3c2.5,2.8,5.2,4.8,8,6.2c-2.4-2.7-4.1-5.8-4-8.8
		c0-0.2,0.3-0.2,0.4-0.1c2.9,5.2,7.1,7.8,12.1,8.7c-2.8-2-5.1-4.4-5.7-7.7c-0.1-0.3,0.3-0.4,0.5-0.2c4.1,5.1,9,7.4,14.4,8.2
		c8.7-0.8,18.2-4,26.6-5.6c2.9-1.1,5.8-2.2,8.5-3.1c7.7-2.6,15.3-5.2,23-7.7c-0.3-4.9-0.7-9.8-1.2-14.6c-1.4-4.9-2.7-9.9-3.6-14.9
		c-3-17-6.3-34.2-1.3-51c0.1-0.3,0.4-0.2,0.5,0.1c0.5,2.7,1,5.4,1.5,8.1c0.3-1.6,0.6-3.2,1.1-4.9c5.6-20,35.5-17.3,42.6-0.3
		c8.1,19.2,6.3,43.5,4.8,65.4c40.6-8.4,94-17,129.6,8c19.9,14,5.4,44.7-17.3,42.4c-15.4-1.6-29.5-5.5-45.2-5.1
		c-14,0.4-28.2,2-42.1,3.9c-2.4,0.3-4.7,0.7-7.1,1.1c4.5,13,9.4,26.7,18.4,36.7c11.2,12.4,31.9,23.7,47.9,28.5
		c1.3,0.4,2.6,0.8,3.8,1.3c0.2,0,0.4,0,0.6,0c7.3,0.3,14,1.5,21-1.4c2-0.8,3.8-1.8,5.5-2.8c1.2-1.5,2.1-3.2,2.9-4.8
		c-2.2-6.1-9.8-12.2-13.5-15.1c-0.5-0.4,0-1.2,0.5-0.9c5.5,3.1,11.8,5.5,17.6,8.5c-3.5-4.7-7.9-9-12.1-10.2
		c-0.3-0.1-0.1-0.5,0.1-0.5c6,0.3,13.5,4.4,19.4,9.8c-2.8-4.8-6.4-9-10.7-11.3c-0.2-0.1-0.1-0.5,0.2-0.4c14,4.8,24.8,15.5,24.8,31.4
		C426.4,301.9,426.1,304.2,425.5,306.6z"/>
	<path class="st0" d="M371.8,406c0.1,0,0.1,0,0.2,0c0,0,0,0,0,0C372,406,371.9,406,371.8,406z"/>
	<path class="st0" d="M358.4,422.3c0,0,0.1,0,0.1,0c0-0.1,0-0.2-0.1-0.3C358.5,422.1,358.5,422.2,358.4,422.3z"/>
</g>
</svg>
