<svg xmlns="http://www.w3.org/2000/svg" viewBox="0 0 464.69 151.91"><defs><style>.cls-1{fill:#fff;}</style></defs><title>자산 1메뉴</title><g id="레이어_2" data-name="레이어 2"><g id="Layer_1" data-name="Layer 1"><path class="cls-1" d="M242.3,120.35l-.17-1v-.07a10,10,0,0,0-.18-1.69,4,4,0,0,1-.06-.47v-.57l-.12-.62c0-.37-.06-.75-.11-1.12s-.08-.85-.13-1.27v-.09l-.1-.66,0-.26v-.62l-.16-.6c0-.16-.05-.31-.07-.47a16.66,16.66,0,0,0-.27-2.78l0-.25-.17-.72a2.51,2.51,0,0,1,0-.27V106l-.09-.9-.13-1.54,0-.47-.18-.6c0-.26-.07-.51-.1-.76l0-.55-.12-.63a1.44,1.44,0,0,0-.47-1.33c-.6-.44-1.44-.23-2.12-.19,0,0,0,0,0,0a6.25,6.25,0,0,1,1,.18h-.14c-.37,0-.74,0-1.12,0l-.4-.08-.32.09c-.27,0-.55,0-.81,0a.19.19,0,0,0-.14.07l-.19,0-.07.07L235,100a2.81,2.81,0,0,0-.3,1.45c0,.26-.06.54-.09.81l-.1.22v.86c-.07.56-.16,1.1-.25,1.66l-.23.86-.17,1.58v0c-.1,1-.14,2.07-.33,3.08a14.37,14.37,0,0,0-.2,2.1l-.07.16,0,1.33v1.16l0,.65a7.88,7.88,0,0,0-.17,1.1l-.15.62-.09,1.08.13,1.18-.3,1.12v.42l.08.07c.08.36.57.38.89.39a5.24,5.24,0,0,0,1.63-.18h0a.25.25,0,0,0,.16-.28s0,0,0,0l.07-.07.05-1.42a8.83,8.83,0,0,1-.08,1.92s.05,0,.05,0a7.77,7.77,0,0,0,.25-2.21c0-1,0-1.95,0-2.92a2.85,2.85,0,0,0,.06-.49l.19,0,.49,0,1.26.08c.4,0,.81.08,1.22.07.05.42.13.83.18,1.19.08.56.1,1.14.15,1.72,0,.27,0,.54.08.79s0,.63.05.93-.13.46,0,.57c.32.26.86.06,1.22.07a5.43,5.43,0,0,0,1.56,0c.27-.08.19-.47.12-.72Zm-4-6.5a.53.53,0,0,0-.35,0l-.13,0-1,.11-.87-.07v-.29l.09-.93.22-.87-.05-.48c.08-.6.13-1.19.16-1.78l0-.14.12-.65v-.33l.21-1.18v-.09c.25-1.42.48-2.84.65-4.26l0-.13.1-.06.14.94.13,1v1l.17,1,0,.83.13.58.09.53c0,.42.08.82.13,1.23v.72l.13.49c.05.73.13,1.5.24,2.26l0,.16.08.35a.91.91,0,0,0,0,.17A1.06,1.06,0,0,1,238.34,113.85Z"/><path class="cls-1" d="M274.43,111.89a.1.1,0,0,0-.07.08c-.14,0-.28,0-.48,0-.4,0-.8,0-1.2,0s-1-.14-1.32.23a.45.45,0,0,0-.06.37c0,.07,0,.13,0,.19a3.6,3.6,0,0,0,0,1.18,4.23,4.23,0,0,1,.06.78,3.57,3.57,0,0,1-.1.35l-.05.06,0,.14a2.12,2.12,0,0,1-.14.31l-.18.29-.06,0,0,.07a1.24,1.24,0,0,1-1,.07c-.31-.13-.33-.37-.49-.61s-.14-.69-.2-1,0-.79,0-1.18a2.92,2.92,0,0,1,.08-1.28,1.75,1.75,0,0,1,.34-.48l.17-.13.33-.18.48-.07.51,0,.56,0,.09-.47v-.1a2.2,2.2,0,0,0,.12-.44,5.48,5.48,0,0,0,0,.86h0a3.22,3.22,0,0,0,0-1.51.14.14,0,0,0-.14-.11,14.18,14.18,0,0,0-1.75-.22,1,1,0,0,1-.77-.37l0-.07-.13-.13a3.79,3.79,0,0,1-.26-.58l0-.16v-.42l0-.42,0-.37v-.42l0-.08a8.76,8.76,0,0,1,.08-1,1.36,1.36,0,0,1,.65-1l.2-.08.39,0,.44.13.33.15h0l.11.29,0,0a5.72,5.72,0,0,1,.14.72c0,.23,0,.45,0,.68l-.05.2,0,.37,0,.3,0,.34h.07v0c.08.38,1.16.27,1.43.26a.44.44,0,0,0,.45-.29h0V107a.69.69,0,0,0,0-.13,6.69,6.69,0,0,0,0-1.55,4.41,4.41,0,0,1,.28,1.4h0a5.94,5.94,0,0,0-.43-2.51v0l0,0a2.22,2.22,0,0,0-.23-.43,3.12,3.12,0,0,0-.4-.44,3.31,3.31,0,0,0-.35-.41,3.21,3.21,0,0,0-2-.62,1.31,1.31,0,0,0-.55.1,2.54,2.54,0,0,0-1.82.93l-.24.15-.14.38a3.42,3.42,0,0,0-.23.42,7.09,7.09,0,0,0-.09,3.77,2.25,2.25,0,0,0,.22.54c0,.09,0,.19.05.28l.07.33.15.14s0,.09.05.13a2.47,2.47,0,0,0,1,.86,4.14,4.14,0,0,0-1.11.7,1.93,1.93,0,0,0-.63.91c-.08.31-.05.64-.13.93a0,0,0,1,0,.06,0,7.12,7.12,0,0,1,.42-.93s0,0,0,0a8.69,8.69,0,0,0-.11,2.7l0,.32.12.52.06.25a2,2,0,0,0,.11.69v.25l.14.12a.16.16,0,0,0,0,.07.69.69,0,0,0,.13.2,1.21,1.21,0,0,0,.14.2,3.06,3.06,0,0,0,2.45,1.11c.93-.15,1.67-.15,2.21-.85a1.28,1.28,0,0,0,.49-.7,2.92,2.92,0,0,1,.19-.49l.1-.13.07-.31c.05-.12.11-.24.15-.37a2.63,2.63,0,0,0,.05-1.15,0,0,0,0,1,0,0l0-.26,0-.18.57-.12.68.12v-.34l0-.75,0-.29c.11.39.09.87.2,1.21a0,0,0,0,0,.06,0C275,113.3,275.17,111.78,274.43,111.89Z"/><path class="cls-1" d="M255.75,121.07l-.54-.9-.39-.82-.26-.62-.17-.27c-.33-.83-.71-1.65-1.06-2.43-.56-1.26-1-2.58-1.6-3.82l.76-.34.52-.18.52-.29.56-.47.38-.5.1-.35A7.32,7.32,0,0,0,255,108a17.91,17.91,0,0,0-.09-4.51,9.07,9.07,0,0,0-.26-1.22,6.16,6.16,0,0,0-.9-2.45s-.05,0,0,0,.11.32.17.48,0,.14,0,.2l-.18-.17a4,4,0,0,0-3.34-1.51s-.06.06,0,.08l.82.29-.25.05a3.49,3.49,0,0,0-1.15-.11,8.36,8.36,0,0,0-2.49.33,5.48,5.48,0,0,0-1.45.18.12.12,0,0,0-.08.11v0a.09.09,0,0,0,0,.08.56.56,0,0,1,0,.07.52.52,0,0,0-.14.35h0v0a7.71,7.71,0,0,0,.05,1.18c0,.23,0,.46,0,.68l-.1.43.13.94.05,1.15.08,1.33.09,1.26,0,1.15.08.86,0,.9,0,.3a37,37,0,0,0,.1,4.34l-.1.43.09.86v.8l0,.45v2.21c0,.08,0,.18,0,.29l0,.1,0,.06c-.07.55-.13,1.26.27,1.28v0a.14.14,0,0,0,.06.26h.05l0,0c.12.09.24.18.35.28h.75l.78-.07.29,0a1.09,1.09,0,0,1,.13-.17,2.61,2.61,0,0,1,.27-.19,3.25,3.25,0,0,1-.08.43,0,0,0,0,0,0,0,1.67,1.67,0,0,0,.25-.61h0a6.22,6.22,0,0,0-.19-2.45,25,25,0,0,0,0-2.87c-.05-1,.07-2.13-.05-3.16l.47.94,0,.07h0c.5,1.36,1.12,2.64,1.68,4,.21.52.44,1.32.76,2a12.37,12.37,0,0,0,.89,1.83.24.24,0,0,0,.17.09v0h0a.41.41,0,0,0,.22,0h1.64l.66,0h.08v0h0a.44.44,0,0,0,.06-.51S255.75,121.08,255.75,121.07Zm-4.07-11.8,0,0a1.86,1.86,0,0,0,.05-.27Zm0-.35c-.05.15-.1.31-.14.47l-.26.21-.69.18-.77.25h-1V110c.09-1.24-.14-2.62-.12-3.82a25.2,25.2,0,0,0-.09-4l-.05-.37.87-.11.95-.11.56.11.56.43.13.43.13.79,0,.1c0,.33.09.65.13,1l0,.36.12.66v.23l-.07.62v.61l0,.15c0,.19,0,.39,0,.57l-.13.58,0,.11a6.21,6.21,0,0,0-.14.62A0,0,0,0,0,251.68,108.92Z"/><path class="cls-1" d="M210.25,120.65l-.1-.25c0-.5,0-1,0-1.52v-.16c0-1.78,0-3.56-.08-5.33,0-.24,0-.49,0-.73l0-.26-.09-.22,0-.37c0-.21,0-.41,0-.62l0,0v-.07c0-1.13.06-2.26.07-3.38,0-1.5.11-3,0-4.55a13,13,0,0,0,0-2.16,1.4,1.4,0,0,0-.06-1h0v-.06h-.06a.74.74,0,0,0-.89-.22s0,0,0,0a2.14,2.14,0,0,0-.84,0,1,1,0,0,0-.39,0h0a1.41,1.41,0,0,0,.32-.09s0,0,0-.06c.32,0,.66,0,1-.09a.06.06,0,0,0,0-.12,2.49,2.49,0,0,0-1.38,0s0,0-.05,0a.49.49,0,0,0-.54.29.2.2,0,0,0-.13.14v.09h0V100a.79.79,0,0,0,0,.35h0v0a3.87,3.87,0,0,0,0,1,10.85,10.85,0,0,0,.09,1.4c0,.26,0,.52,0,.78,0,.56,0,1.13,0,1.71,0,1.75,0,3.44.12,5.18,0,.86.07,1.72.1,2.58h0c0,.3,0,.6,0,.9,0,1,0,2,0,3,0,.48,0,1,0,1.44a1.79,1.79,0,0,0,0,.23l-.06.25.07.42s0,.12,0,.17v.06q0,.48,0,1a2.13,2.13,0,0,0,.08,1.15v.25h0a.17.17,0,0,0,.12.06c.33,0,.59.23.92.23s.83,0,1.24,0c.18,0,.41-.17.4-.35h.16l-.09-.42Z"/><path class="cls-1" d="M166.85,117.74a3.81,3.81,0,0,0-.24-1,7.09,7.09,0,0,0-.86-2.21v0l0,0a11.85,11.85,0,0,0-.94-1.37l-.2-.35-.52-.58-.39-.76-.27-.2c-.2-.31-.42-.62-.64-.92l0-.06-.38-.65-.47-.65-.38-.4-.21-.46-.24-.22-.08-.13c-.07-.13-.16-.3-.25-.49l0-.35-.39-.57-.18-.47-.16-.58-.13-.12a5,5,0,0,1-.22-1l0-.14-.06-.27c0-.89.45-1.57,1.77-1.56a1.52,1.52,0,0,1,1.25.59,3.54,3.54,0,0,1,.11.44c.14.66.14,1.36.22,2,.06.46-.14.94.09,1.38v.16l.13,0c.31.32.75.13,1.14.24a1.87,1.87,0,0,0,.53,0h0c-.53.07-1-.12-1.52.15a.05.05,0,0,0,0,.08,2.29,2.29,0,0,0,2.14.18.62.62,0,0,0,.29-.45.58.58,0,0,0,.11-.25,1.45,1.45,0,0,0,0-.36c0-.26,0-.54,0-.74,0-.8-.11-1.62-.15-2.42,0-.16,0-.32-.07-.48l0-.3-.09-.75-.3-.76-.35-.43-.65-.54-.38-.36-.56-.14-.85-.07-.94,0h-.17l-.49,0a3.36,3.36,0,0,0-1.29.13h-.05a4,4,0,0,0-.65.25c-1,.52-2,1.2-2.12,2.32l-.17.26-.09,1.08.05.72.17,1.22.17.83.2.22a7.19,7.19,0,0,0,1.1,1.82v.08l.2.21c.2.4.41.79.62,1.18h0a9.57,9.57,0,0,0,.71,1.08,7,7,0,0,0,.59.64c.37.57.75,1.13,1.1,1.74a35.29,35.29,0,0,1,1.9,3.79,3.9,3.9,0,0,1,.18.62c.11,1.13-.2,2.25-1.68,1.59-.56-.26-.73-.6-1.18-.67a2.22,2.22,0,0,1-.12-.39l0-.53-.11-.2a14.5,14.5,0,0,0-.23-1.59c0-.08,0-.16.07-.21a1,1,0,0,0-.07-.65v-.05h0a.83.83,0,0,0-.29-.35,1.38,1.38,0,0,0-.78-.09c-.18,0-.21,0-.42,0-.63.06-1.1.13-1.15.54h0l.09,1.34,0,.36c-.07-.25-.16-.49-.25-.73,0,0,0,0,0,0a6.92,6.92,0,0,0,.4,3,3.31,3.31,0,0,0,1.88,2.5,3.51,3.51,0,0,0,.59.26l.6.3,1,0,1,0h.17l.49,0a1.63,1.63,0,0,0,1.72-.65l.34-.15.47-.5.61-.86,0-.23A2.67,2.67,0,0,0,166.85,117.74Z"/><path class="cls-1" d="M69,0C30.83.27-.08,15.57,0,62.79c.08,44.65,27.8,81.76,63.07,85.45-1.43,0-2.85-.08-4.29-.07-2.73,0-6.8.15-9.33-1,0,0,0,0,0,0A33.13,33.13,0,0,0,57,149.41a49.3,49.3,0,0,0,10.43.92,36.13,36.13,0,0,0,9.82-1.68A17.1,17.1,0,0,0,74.17,150l-.93.16c-2.92.59-7.6,1.49-10.63.67,0,0,0,0,0,0a33.09,33.09,0,0,0,7.8,1,48.51,48.51,0,0,0,10.07-.6c7-1.13,14.62-5.19,20-9.68,1-.8,1.9-1.61,2.83-2.41l-.79,1.13c-2.8,2.6-5.69,5-8.54,7.29-.07,0,0,.15.08.11,8.11-4.2,15.33-11.19,20.91-18.24a43.34,43.34,0,0,0,2.5-3.55c.45-.56.89-1.14,1.31-1.73a.43.43,0,0,0,0,.07c-1.71,3.29-3.86,8.62-7,10.84,0,0,0,.11,0,.09,2.92-1.79,4.7-5,6.75-7.57,2.74-3.48,4.84-8.16,6.76-12.12.4-.82.75-1.67,1.09-2.52a79.91,79.91,0,0,0,6.79-17.62c.55-2.21,1.1-4.43,1.61-6.66a105.11,105.11,0,0,0,3.41-26.84C138.11,14.61,107.15-.26,69,0Zm6.36,43.7c.53-.38.45-1.68.78-2.29a31.59,31.59,0,0,1,1.78-3.16,24.19,24.19,0,0,1,5-5.52c1.63-1.23,3.49-3.09,5.52-4.41A14.82,14.82,0,0,1,92.35,26a4.91,4.91,0,0,1,5.77,1.48,9,9,0,0,1,.63,1.08,4.79,4.79,0,0,1-.6,4.92A40.71,40.71,0,0,1,86.8,42.41a1.55,1.55,0,0,0-.22.12l-.92.65A22.33,22.33,0,0,1,82,45.35a5.05,5.05,0,0,1-.45.25,2.59,2.59,0,0,1-.45.14,22.71,22.71,0,0,1-5.46,1.4.16.16,0,0,1-.11-.29c.46-.32,1-.62,1.44-.93a1.42,1.42,0,0,1-.16-.36A5.84,5.84,0,0,1,77.58,42l-.39.47A3.61,3.61,0,0,1,75.5,44C75.35,44,75.21,43.8,75.35,43.7ZM29.27,32.5a9.07,9.07,0,0,1,1-.77,4.8,4.8,0,0,1,5,0c.72.48,1.45,1,2.16,1.58a3.91,3.91,0,0,1,1.54.89c1.42,1.52,2.95,2.9,4.35,4.45,2.5,2.77,4.87,5,6.84,8.2.27.29.53.58.79.89.43.51.54,1.17,1.07,1.67.09.09,0,.25-.13.17a9.54,9.54,0,0,1-1.23-1.31,2.14,2.14,0,0,0-.82-.45,6.66,6.66,0,0,0,.71,2,1,1,0,0,1-.62,1.53c-1.71.57-3.08-.31-4.76-.58-2.33-.37-3.87-1.47-5.78-2.77-3.88-2.62-8.56-5.4-10.82-9.62A4.9,4.9,0,0,1,29.27,32.5Zm-5,79.06a.09.09,0,0,1,0-.17A.09.09,0,0,1,24.28,111.56Zm99.14-14.71a5.89,5.89,0,0,1-.72,2.48,13.71,13.71,0,0,1-4.57,6.61c-.18.21-.37.42-.56.61-6.2,6.23-22.83,2.79-29.9.49A41.52,41.52,0,0,1,68.26,93a27.53,27.53,0,0,0,3.47,5.12c1.2,1.31,2.11,1.86,3,3.31,0,0,0,.07-.06,0-1.89-1.64-4.16-2.68-5.82-4.62-2-2.31-3.75-4.68-5.53-7.12a21.16,21.16,0,0,1-1.5-2.4C53.94,100.45,42.89,113,26.22,112.06c-1.11-.06-1-1.59,0-1.82a23.81,23.81,0,0,0,9.9-5.66A60.08,60.08,0,0,1,30.36,107c-.19.07-.37-.2-.18-.32A69.57,69.57,0,0,0,42.67,96.33c1.81-2.41,3.62-4.84,5.27-7.33.23-.35.46-.73.68-1.11a57.32,57.32,0,0,0,4.81-14.33l-2.86.54c-8.6,1.57-18.29,2.84-25.44-3.2a9.59,9.59,0,0,1-2.19-12,.4.4,0,0,1,.68-.1,10,10,0,0,0,2.94,2.28,4.83,4.83,0,0,1-1.47-3.24c0-.08.12-.08.15,0a6.21,6.21,0,0,0,4.44,3.2,4.59,4.59,0,0,1-2.08-2.84c0-.11.12-.16.19-.08a8,8,0,0,0,5.28,3c3.19-.31,6.7-1.46,9.79-2C43.92,58.69,45,58.3,46,58c2.83-1,5.63-1.91,8.44-2.83-.11-1.8-.27-3.59-.44-5.38-.51-1.82-1-3.64-1.34-5.48-1.1-6.24-2.32-12.57-.46-18.75,0-.09.16-.06.18,0,.17,1,.36,2,.54,3,.11-.59.23-1.18.39-1.78,2.05-7.36,13-6.35,15.66-.12,3,7.06,2.32,16,1.76,24,14.93-3.08,34.53-6.25,47.61,2.94,7.32,5.14,2,16.44-6.35,15.59-5.65-.58-10.86-2-16.61-1.86a143,143,0,0,0-15.46,1.43c-.87.12-1.73.28-2.59.41C79,73.92,80.77,79,84.08,82.63c4.11,4.58,11.74,8.72,17.59,10.47.48.14.94.3,1.41.46h.22c2.68.1,5.13.57,7.71-.51a17.77,17.77,0,0,0,2-1,10.36,10.36,0,0,0,1.06-1.77c-.8-2.25-3.6-4.49-5-5.55-.17-.13,0-.45.2-.34,2,1.14,4.32,2,6.46,3.14-1.3-1.72-2.91-3.3-4.46-3.75-.11,0,0-.19,0-.18,2.2.11,5,1.6,7.13,3.58A10.43,10.43,0,0,0,114.57,83a.08.08,0,0,1,.07-.15c5.14,1.76,9.11,5.71,9.1,11.56A11.09,11.09,0,0,1,123.42,96.85Z"/><path class="cls-1" d="M229.75,49.41c0-1.38.08-2.75.06-4.12s.26-4.53-.55-6.62a3,3,0,0,0-.22-1.24c-1.67-3.81-4-3.43-7.65-3.41-4.51,0-4.19,3.53-4.18,7.27,0,7.87-.16,16.62.9,24.39.94,6.9.27,14.53,2.17,21.21a.1.1,0,0,0,.19,0c.16-.58.27-1.2.4-1.79.57,1.91,1.73,3.52,3.42,3.52h.07c1.61.71,4,.65,4.79-.65,1-1.71,1-4.68,1-6.6a47.06,47.06,0,0,0,0-6.51c0-1,0-1.94,0-2.84C230.49,64.39,230.2,57,229.75,49.41Zm-5.93,36a3.67,3.67,0,0,0,0-1l.15,0A10,10,0,0,1,223.82,85.45Z"/><path class="cls-1" d="M178.65,102.57v-.91l0-.9c0-.05,0-.09-.06-.15a1.79,1.79,0,0,0,0-.23c0-.16-.06-.32-.09-.48h0a.45.45,0,0,0-.3-.18h-.74a2.89,2.89,0,0,0,.86-.19c.08,0,.08-.17,0-.17-.69,0-1.36,0-2.05,0a.17.17,0,0,0-.16.11l-.2.05a.1.1,0,0,0-.07.07,9.66,9.66,0,0,0-.08,1.86.57.57,0,0,0,0,.13c.08,1.19,0,2.44,0,3.57a20.24,20.24,0,0,0,.1,2v0l0,.2c0,.35.06.7.1,1v1.65l0,.21v2c0,1.14-.06,2.29-.08,3.43l0,.42a2.46,2.46,0,0,0,0,.28,2.26,2.26,0,0,0,0,.82,3.46,3.46,0,0,1,0,.46l-.08.23V118c0,.11-.07.23-.11.35a3.46,3.46,0,0,1-.36.62s0,0,0,0a4.1,4.1,0,0,0,.47-.68v.11l-.13.49-.13.27-.35.25-.65.21-.64-.11-.44-.1-.41-.26a.93.93,0,0,1-.2-.53,5.82,5.82,0,0,0-.05-.6,17.55,17.55,0,0,1-.2-2.3h0v-.91a23.46,23.46,0,0,1,.06-2.78,18.12,18.12,0,0,0,0-3.61,10.61,10.61,0,0,0,.09-2v-.16c0-.49,0-1,0-1.42,0-.26,0-.53,0-.81v-.19l0-.13c0-.38,0-.77,0-1.17l.1-.55v-.66l-.07-.31a5.68,5.68,0,0,1,.11-.72,5.58,5.58,0,0,0-.08-.57.37.37,0,0,0-.12-.07,5.45,5.45,0,0,0-1.14,0l-.67,0a.14.14,0,0,0,0-.07,6.34,6.34,0,0,1,.77,0,5.29,5.29,0,0,0,1.19-.13c.14,0,.1-.22,0-.23a2.35,2.35,0,0,0-.59.05,2.09,2.09,0,0,1-.61,0,2.31,2.31,0,0,0-1.55.08.4.4,0,0,0-.23.45c-.05,0-.09,0-.09.11a12,12,0,0,0,0,1.47,17.9,17.9,0,0,0,0,3.87,3.16,3.16,0,0,0,0,.87,3.44,3.44,0,0,1,0,.46c-.07,1.25-.13,2.51-.13,3.77,0,1.64.06,3.29.06,4.93v.58a7.39,7.39,0,0,0-.06,1.15l0,.1,0,.14a9.88,9.88,0,0,0,.31,2v.15l.08.16c0,.14.06.27.1.41a3,3,0,0,0,2.24,1.77l.9.13h.95l.19,0c1.7.25,3.84-.24,4-2.15.11-1.15.1-2.35.1-3.51.06-.58.11-1.18.13-1.77l0-.18,0-.43c.06-1,0-2.1,0-3.14l.05-.47,0-.25c0-.23,0-.46,0-.68a17.14,17.14,0,0,0,0-3.43A22.69,22.69,0,0,0,178.65,102.57Z"/><path class="cls-1" d="M228.89,112a3.81,3.81,0,0,0-.37-.5l-.07-.17-.36-.19a2.21,2.21,0,0,0-.4-.28,0,0,0,0,0,0,0l-.12-.11-.87-.36,1.25-.58.56-.42,0-.06a1.9,1.9,0,0,0,.4-.7c0-.06,0-.12.05-.17l0-.08v0l0-.13a5.55,5.55,0,0,0,.15-.73c0-.16.07-.32.1-.49a11.42,11.42,0,0,0,0-3.68v-.13a3.29,3.29,0,0,0-.51-1.89l-.19-.35-.34-.43-.4-.43-.82-.61-.73-.14-.82,0h0l.81,0a0,0,0,0,0,0-.06,27.35,27.35,0,0,0-6.33,0s0,0,0,0c.42.07.84.11,1.26.14l-.88,0a.8.8,0,0,0-.13.13.68.68,0,0,1-.12.12,2.83,2.83,0,0,0-.08.4l0,.29,0,.9v1.95c0,.53,0,1.07,0,1.6l0,.48.08,1.19v.75l0,.2c0,1.37,0,2.75.1,4.12-.1,1.35.08,2.8.1,4.09a27.15,27.15,0,0,0,.18,5.64h0l0,.31.14.08,1,.09.86.11,1-.11,1.12.11,1.08-.11,1-.18.87-.39h0A1.53,1.53,0,0,0,228,121a4.14,4.14,0,0,0-.55.64s0,0,0,0c.28-.25.68-.44,1-.68a2.4,2.4,0,0,0,.62-1.37c0-.12.05-.24.07-.35a7.62,7.62,0,0,0,.37-2,13.9,13.9,0,0,0-.39-4.5A3.12,3.12,0,0,0,228.89,112Zm-6-3.66-.08-.25c0-.33,0-.65,0-1l0-.11,0-.79v-.9l.08-.83-.08-.72.08-.79,0-.65,0-.63a8.45,8.45,0,0,0,1.22-.09c.13,0,.26,0,.4,0a3,3,0,0,1,1,.32,3.65,3.65,0,0,1,.8,2c.07.67.12,1.33.19,2a2.44,2.44,0,0,1,0,.47,4.72,4.72,0,0,1-.29,1.1c-.06.14-.13.29-.19.44a2.8,2.8,0,0,0-.66.71l-.16.07a6.52,6.52,0,0,1-2.09.37Zm3.63,8.88a4.89,4.89,0,0,1-.43,1.76,7.26,7.26,0,0,1-.63.74l-.68.09h-.64l-.73-.18h-.09a.69.69,0,0,0-.11-.13.31.31,0,0,1,0-.08c0-.49,0-1,0-1.5v-.07l0-.08-.05-.28,0-1.38,0-.65,0-.1c0-1.15.14-2.34.06-3.48a.26.26,0,0,1,.09,0H224a5.66,5.66,0,0,1,1.83.87,1.94,1.94,0,0,1,.51.87h0l.15.58s0,0,0,.06,0,.24,0,.36,0,.45,0,.68l0,.26.05.3C226.55,116.29,226.54,116.76,226.56,117.22Z"/><path class="cls-1" d="M204.13,120.47l-.1-.25c0-.5,0-1,0-1.51v-.17c.05-1.77,0-3.56-.08-5.33,0-.24,0-.49,0-.73l.06-.26-.1-.23c0-.12,0-.24,0-.36l0-.62v-.12c0-1.13.06-2.25.07-3.38,0-1.5.11-3,0-4.55a13,13,0,0,0,0-2.16,1.37,1.37,0,0,0-.06-1h0V99.7h-.06a.73.73,0,0,0-.89-.23s0,0,0,0a2.68,2.68,0,0,0-.85,0,1,1,0,0,0-.39,0h0a.77.77,0,0,0,.32-.09s0,0,0-.06c.32,0,.66,0,1-.09a.06.06,0,0,0,0-.12,2.53,2.53,0,0,0-1.39,0l0,0a.49.49,0,0,0-.54.3.16.16,0,0,0-.12.14.22.22,0,0,0,0,.08h0v.09a.67.67,0,0,0,0,.35h0v0a4.27,4.27,0,0,0,0,1,13.18,13.18,0,0,0,.09,1.41,6.59,6.59,0,0,0,0,.77c0,.57,0,1.13,0,1.71,0,1.45,0,2.86.08,4.29-.18,0-.36,0-.54,0a11,11,0,0,0-1.71.1c-.28,0-.56.06-.85.09l-.29,0c-.21,0-.42,0-.63,0,0-.48,0-1-.06-1.47,0-.3,0-.6,0-.9,0-1,.06-2,0-3,0-.48,0-1,0-1.43l0-.24,0-.24-.07-.42c0-.06,0-.12,0-.18v-.06c0-.31,0-.63,0-1s.13-.8-.08-1.15v-.25h0a.23.23,0,0,0-.12-.06c-.33,0-.59-.23-.92-.23s-.83,0-1.24,0c-.18,0-.41.16-.4.35H194l.09.42,0,.7.09.24c0,.51,0,1,0,1.52v.16c0,1.78,0,3.56.08,5.34,0,.24,0,.48.06.73l-.06.26.09.22,0,.37c0,.21,0,.41,0,.62l0,0v.07c0,1.12-.06,2.25-.07,3.38,0,1.49-.11,3,0,4.55a12.86,12.86,0,0,0,0,2.15,1.4,1.4,0,0,0,.06,1h0v.07h.06a.73.73,0,0,0,.89.23s0,0,0,0a2.15,2.15,0,0,0,.84,0,1,1,0,0,0,.39,0s0,0,0,0a.87.87,0,0,0-.32.09s0,0,0,.06c-.32,0-.66,0-1,.08-.06,0-.06.11,0,.13a2.62,2.62,0,0,0,1.39,0l0,0a.51.51,0,0,0,.54-.3.17.17,0,0,0,.13-.14.28.28,0,0,1,0-.09h0v-.09a.76.76,0,0,0,0-.35,0,0,0,0,0,0,0v0a4.36,4.36,0,0,0,0-1,13,13,0,0,0-.1-1.4,6.62,6.62,0,0,0,0-.77c0-.57,0-1.14,0-1.71,0-1.31,0-2.58-.06-3.86l.71-.06.25,0,.08,0,.07-.08.13,0,.2,0h0l1.11.06a8.66,8.66,0,0,0,1.44,0l0,.89h0c0,.3,0,.6,0,.9,0,1,0,2,0,3,0,.47,0,1,0,1.43a1.79,1.79,0,0,0,0,.24l-.06.24.07.41c0,.07,0,.13,0,.19v0q0,.48,0,1a2.23,2.23,0,0,0,.08,1.15v.25h.05a.19.19,0,0,0,.13.07c.32,0,.59.22.91.23h1.25c.18,0,.4-.17.39-.35h.16l-.09-.42Z"/><path class="cls-1" d="M185.88,86.18a5.64,5.64,0,0,0,.25,1.3c0,.08.11.08.14,0a8.81,8.81,0,0,0,.38-3.79,70,70,0,0,0,.49-14c.18-1,.11-2.11.23-3a23.77,23.77,0,0,0,0-4.69,83,83,0,0,0,.09-14.27,57.71,57.71,0,0,0,.16-11.36.92.92,0,0,0-.64-.84l-.38-.12a.14.14,0,0,0-.15,0,1.77,1.77,0,0,0-.36.64c-1.57-1.68-5.07-1.29-7-.87a1.32,1.32,0,0,0-.91.91c-.82,2.94-.18,7.11-.23,10.21-.05,3.58-.34,7.16-.35,10.73-2.26-.09-4.53-.09-6.82-.06-1.48,0-3.12-.15-4.72-.16,0-5.14-.48-10.37-.23-15.19a12,12,0,0,0-.22-2.88,6.25,6.25,0,0,0-.85-4.29c-.5-.71-1.61-.49-2.71-.14a3.57,3.57,0,0,0-1.32.27,3,3,0,0,0-2.35-.12,1.63,1.63,0,0,0-.31,0,1.1,1.1,0,0,0-1.06.8,2.32,2.32,0,0,0,.05,1.06,9,9,0,0,0-.39,3.34c-.71,8.79.3,17.36.52,26.14-.74,3.42,0,8.42.23,10.84.24,2.26-.69,10.59,2.48,11.46,2.57.71,4.65,0,5.66-1.82a1.48,1.48,0,0,0,.19,1,.08.08,0,0,0,.11,0,2.17,2.17,0,0,0,.43-1.51,16.41,16.41,0,0,0,.44-3,19.53,19.53,0,0,0,.24-5.2c0-.1,0-.2,0-.31,0-.59,0-1.14,0-1.53a51.8,51.8,0,0,0-.14-7.67,13.11,13.11,0,0,0,.27-3.42,9.08,9.08,0,0,1,.93-.12,5.15,5.15,0,0,0,1,.13,3.45,3.45,0,0,0,1.14-.3l2.18.1c1.6.05,3.4.2,5.18.21.07,1.2.21,2.42.32,3.73.34,3.87.09,7.8.22,11.68a32.19,32.19,0,0,0,.24,4,4.26,4.26,0,0,0,3.45,4.36A3.92,3.92,0,0,0,185.88,86.18ZM167.11,64.54a.48.48,0,0,0,0-.12l.46.08ZM179.49,37.8c-.25-.49-.22-.5.07-.06Z"/><path class="cls-1" d="M191.73,116.69a9.43,9.43,0,0,0-2.68-4.57c-.74-1.59-2.14-2.92-3-4.45-.7-1.32-2.92-5.6.4-5.58a1.5,1.5,0,0,1,1.25.59c0,.15.09.29.12.44.13.66.13,1.36.21,2,.07.46-.14.94.1,1.38l0,.16.14,0c.3.32.74.13,1.13.24a1.91,1.91,0,0,0,.53,0h0c-.53.07-1-.12-1.52.15a.05.05,0,0,0,0,.08,2.29,2.29,0,0,0,2.14.18.61.61,0,0,0,.3-.45.59.59,0,0,0,.1-.25,1.09,1.09,0,0,0,0-.36c0-.26,0-.54,0-.74,0-.8-.11-1.62-.16-2.42a3.39,3.39,0,0,0-.26-1.14l-.05-.39-.3-.76-.34-.43-.65-.54-.39-.36-.56-.14-.85-.07-.93,0-.49,0a3.39,3.39,0,0,0-1.3.13h0a3.37,3.37,0,0,0-.65.25c-1.06.52-2.06,1.2-2.12,2.32l-.18.26-.09,1.08,0,.72.17,1.22.17.83.2.22a7.49,7.49,0,0,0,1.1,1.82v.08l.2.21c.21.4.41.79.63,1.18h0a7.44,7.44,0,0,0,.71,1.08,6.84,6.84,0,0,0,.58.64c.37.57.75,1.13,1.1,1.74a35.29,35.29,0,0,1,1.9,3.79,3.08,3.08,0,0,1,.18.62c.11,1.13-.2,2.25-1.68,1.59-.56-.26-.72-.6-1.18-.67a2.23,2.23,0,0,1-.17-.73,15.13,15.13,0,0,0-.26-2,1.91,1.91,0,0,1,.06-.21,1,1,0,0,0-.39-1,1.38,1.38,0,0,0-.78-.09c-.17,0-.21,0-.42,0-.63.06-1.09.13-1.15.54h0l.08,1.34,0,.36c-.08-.25-.16-.49-.26-.73,0,0,0,0,0,0a6.9,6.9,0,0,0,.39,3,3.31,3.31,0,0,0,1.88,2.5,4.41,4.41,0,0,0,.59.26l.6.3.95,0,1,0,.61,0c.65.27,1.31-.13,1.88-.76l.05,0,.48-.5.6-.86v0l.12-.14a2.63,2.63,0,0,0,.46-1.87A3.8,3.8,0,0,0,191.73,116.69Z"/><path class="cls-1" d="M432.28,116.69a9.43,9.43,0,0,0-2.68-4.57c-.74-1.59-2.14-2.92-3-4.45-.7-1.32-2.92-5.6.4-5.58a1.5,1.5,0,0,1,1.25.59,3.6,3.6,0,0,1,.12.44c.13.66.13,1.36.22,2,.05.46-.15.94.09,1.38l0,.16.14,0c.3.32.74.13,1.13.24a1.91,1.91,0,0,0,.54,0h0c-.53.07-1-.12-1.51.15,0,0,0,.06,0,.08a2.27,2.27,0,0,0,2.13.18.57.57,0,0,0,.29-.45.48.48,0,0,0,.11-.25,1.09,1.09,0,0,0,0-.36c0-.26,0-.54,0-.74,0-.8-.11-1.62-.16-2.42a3.33,3.33,0,0,0-.26-1.13l0-.4-.31-.76-.34-.43-.65-.54-.39-.36-.56-.14-.85-.07-.93,0-.5,0a3.57,3.57,0,0,0-1.29.13h0a3.54,3.54,0,0,0-.64.25c-1.06.52-2.06,1.2-2.12,2.32l-.18.26-.09,1.08.05.72.17,1.22.17.83.2.22a7.49,7.49,0,0,0,1.1,1.82v.08l.2.21c.21.4.41.79.63,1.18h0a7.67,7.67,0,0,0,.7,1.08c.18.22.38.43.59.64.37.57.75,1.13,1.1,1.74a35.29,35.29,0,0,1,1.9,3.79,3.08,3.08,0,0,1,.18.62c.11,1.13-.2,2.25-1.68,1.59-.56-.26-.72-.6-1.18-.67a2.23,2.23,0,0,1-.17-.73,12.39,12.39,0,0,0-.27-2c0-.08.05-.16.07-.21a1,1,0,0,0-.39-1,1.38,1.38,0,0,0-.78-.09c-.17,0-.21,0-.42,0-.63.06-1.1.13-1.15.54h0l.08,1.34,0,.36c-.08-.25-.16-.49-.26-.73,0,0,0,0,0,0a6.9,6.9,0,0,0,.39,3,3.35,3.35,0,0,0,1.88,2.5,3.51,3.51,0,0,0,.59.26l.6.3.95,0,1,0,.63,0c.64.27,1.31-.13,1.87-.76l.05,0,.48-.5.6-.86v0l.12-.14a2.68,2.68,0,0,0,.47-1.87A4.21,4.21,0,0,0,432.28,116.69Z"/><path class="cls-1" d="M424.68,88.33a3.81,3.81,0,0,0,.71-.13,1.62,1.62,0,0,0,.92-.83c.2.23.41.43.61.66.38.43,1.14-.15.8-.61a55.27,55.27,0,0,0-4.28-5.56c-1.59-2.65-3.83-4.94-5.69-7.38-.22-.27-.4-.54-.6-.82a50,50,0,0,0-5.52-8.32c.59-.15,1.16-.32,1.66-.5a5.38,5.38,0,0,1,.64-.2,2.35,2.35,0,0,1-.28,0,1.77,1.77,0,0,0,.32,0h0c.31,0,.47,0,.47-.07A5,5,0,0,0,416,64c1.1-.72,1.88-1.19,2.61-1.76,3.72-1.49,4.78-8,5.41-11.46.95-5.14-.67-12.55-5.24-15.2a.06.06,0,0,0-.07.08,19.77,19.77,0,0,1,2,3.34,6.38,6.38,0,0,0-3.47-2.81,14.15,14.15,0,0,0-7.43-2.34,39.34,39.34,0,0,0-6.13,0c-1.36,0-2.69-.06-3.9,0-2.65.11-5.57.19-7.64,2a.73.73,0,0,0-.2.76,2,2,0,0,0-.16.14,5,5,0,0,0-.5-1.37.46.46,0,0,0-.79,0c-1.17,2-.5,4.49-.42,6.74,0,.62,0,1.24,0,1.87a10.53,10.53,0,0,0-.12,2.81,4.73,4.73,0,0,0,.13,1.85c0,.28,0,.57,0,.84-.25,3.73,0,7.59,0,10.94,0,7.85.58,15.75.93,23.6h0c-.07.88-.12,1.75-.23,2.63a1.7,1.7,0,0,0,.85,1.51,8.39,8.39,0,0,0,7-.19,1.42,1.42,0,0,0,.2,0,1.37,1.37,0,0,0,1.12-2.09c.05-.26.09-.54.14-.8.13,1,.2,2.1.41,3.06a.38.38,0,0,0,.73,0c.74-3.4.14-7.24-.11-10.74.24-3.11.31-6.28.25-9.48a29.72,29.72,0,0,0,4.75,5.31A113.68,113.68,0,0,0,416.47,87.5s.08,0,.12,0a.63.63,0,0,0,.51.53,10.92,10.92,0,0,0,2.4.33,7.09,7.09,0,0,0,1.77.08,14.23,14.23,0,0,1,2.16.21A1.37,1.37,0,0,0,424.68,88.33Zm-27-4.13c0-.13,0-.26.07-.39,0,.13,0,.26.07.4Zm11-25a8.9,8.9,0,0,1-1.46.37,52.25,52.25,0,0,1-6.16.06c-.21-2.87-.48-5.7-.79-8.48a33.62,33.62,0,0,0-.52-8.25,21.1,21.1,0,0,0-.35-2.11,1.94,1.94,0,0,0,0-.34,37.39,37.39,0,0,0,5.06.13c1.57,0,3.23.36,4.81.29a5.29,5.29,0,0,1,1.34.8,10.52,10.52,0,0,1,2.7,7.56c-.06,3.16.13,5.87-2.34,8.34A10.28,10.28,0,0,1,408.6,59.19Z"/><path class="cls-1" d="M418.82,120.65l-.1-.25c0-.5,0-1,0-1.52v-.16c0-1.78,0-3.56-.08-5.33,0-.24,0-.49-.05-.73l.05-.26-.09-.22,0-.37,0-.62v-.12c0-1.13.06-2.26.07-3.38,0-1.5.11-3,0-4.55a13,13,0,0,0,0-2.16,1.4,1.4,0,0,0-.06-1h0v-.06h-.06a.74.74,0,0,0-.89-.22s0,0,0,0a2.2,2.2,0,0,0-.85,0,1,1,0,0,0-.39,0h0a1.28,1.28,0,0,0,.32-.09s0,0,0-.06c.32,0,.66,0,1-.09a.06.06,0,0,0,0-.12,2.53,2.53,0,0,0-1.39,0l0,0a.49.49,0,0,0-.54.29.22.22,0,0,0-.13.14.25.25,0,0,1,0,.09h0V100a.79.79,0,0,0,0,.35h0a0,0,0,0,1,0,0v0a4.36,4.36,0,0,0,0,1,13,13,0,0,0,.1,1.4c0,.26,0,.52,0,.78,0,.56,0,1.13,0,1.71,0,1.75,0,3.44.12,5.18.05.86.07,1.72.1,2.58h0c0,.3,0,.6,0,.9,0,1-.05,2,0,3,0,.48,0,1,0,1.44a1.79,1.79,0,0,0,0,.23l-.06.25.07.42s0,.12,0,.17v.06q0,.48,0,1c0,.38-.13.8.08,1.15v.25h0a.17.17,0,0,0,.12.06c.33,0,.59.23.92.23s.83,0,1.24,0c.19,0,.41-.17.4-.35h.16l-.08-.42Z"/><path class="cls-1" d="M379.27,99.15a1.15,1.15,0,0,0-.31,0h0a3.19,3.19,0,0,1-.53.06,17.88,17.88,0,0,0-2.54-.07,26.93,26.93,0,0,0-3.24.15l-.66-.11-.65.05-.29.26-.08,1.74.07.49a25.13,25.13,0,0,0,.18,3.69l0,.78v1.69l0,1.66v.05c0,.48,0,1,0,1.43-.12,1.35,0,2.76-.09,4.09a31.24,31.24,0,0,0,.06,3.62c0,.19,0,.38,0,.57l-.12,1.13.13.76,0,.13a6.14,6.14,0,0,1,.51.51h1l1.57-.07,1.13-.14,1.6.07,1.12-.11.86,0,.56,0v0a.29.29,0,0,0,.16-.09.15.15,0,0,0,.06-.1s0,0,0,0a4.3,4.3,0,0,0-.11-1.92s0,0,0,0a12.08,12.08,0,0,1-.17,1.47l0-.5-.1-.19a2.18,2.18,0,0,0,.05-.42.31.31,0,0,0-.24-.42l-.06-.07-.25.07a21.86,21.86,0,0,0-2.29,0c-.74,0-1.51.07-2.26.15l-.38-.09-.13-.94,0-.71,0-.27c0-.46,0-.92,0-1.38l0-.12,0-.17c0-.81-.05-1.61-.1-2.42l.08-1.36,0-.44.74-.07h2.09a.5.5,0,0,1,.13,0l.2,0h0a4.52,4.52,0,0,0,.53-.11l0-.5-.05-.61v-.07a1.19,1.19,0,0,0,.17.45,1.9,1.9,0,0,0,.08.76s.09.07.12,0a3.13,3.13,0,0,0,.2-1.43c0-.39.07-.75-.33-.92a.24.24,0,0,0-.14,0s0,0-.06,0c-1.11,0-2.26.13-3.36,0a4.13,4.13,0,0,0-.44,0l0-.18-.13-1.19.05-1.36.08-.87,0-.15c.12-1.22.2-2.45.24-3.68l.66-.12,1.13,0,.6-.14.91.14.73,0,1.34,0h.11a1.19,1.19,0,0,1,.33,0l0-.39-.06-.14c0-.16.07-.34.1-.54a4.26,4.26,0,0,0,.09.8s0,0,.05,0a5.45,5.45,0,0,0,.1-1,1.91,1.91,0,0,0,0-.92C380,99,379.56,99,379.27,99.15Z"/><path class="cls-1" d="M411.83,102.57v-.91l0-.9a.67.67,0,0,1-.06-.15c0-.08,0-.15,0-.23h0a4,4,0,0,0-.08-.48h0a.45.45,0,0,0-.3-.18h-.74a2.89,2.89,0,0,0,.86-.19c.08,0,.08-.17,0-.17-.69,0-1.36,0-2,0a.17.17,0,0,0-.16.11l-.2.05a.1.1,0,0,0-.07.07,9.66,9.66,0,0,0-.08,1.86s0,.09,0,.13c.08,1.19.05,2.44,0,3.57a17.7,17.7,0,0,0,.1,2v0l0,.2c0,.35.07.7.11,1v1.65l0,.21v2c0,1.14-.06,2.29-.08,3.43,0,.14,0,.28-.05.42s0,.18,0,.28a2.26,2.26,0,0,0,0,.82,3.46,3.46,0,0,1,0,.46l-.08.23V118a3.58,3.58,0,0,0-.11.35,4.19,4.19,0,0,1-.36.62s0,0,0,0a3.53,3.53,0,0,0,.46-.68v.11l-.12.49-.14.27-.34.25-.65.21-.64-.11-.44-.1-.41-.26a1,1,0,0,1-.21-.53,3.94,3.94,0,0,0,0-.6,17.55,17.55,0,0,1-.2-2.3h0v-.91a23.46,23.46,0,0,1,.06-2.78,18.12,18.12,0,0,0,0-3.61,10.61,10.61,0,0,0,.09-2v-.16c0-.49,0-1,0-1.42,0-.26,0-.53,0-.81v-.19l0-.13c0-.38,0-.77-.05-1.17l.11-.55v-.66l-.07-.31a5.68,5.68,0,0,1,.11-.72,5.58,5.58,0,0,0-.08-.57.29.29,0,0,0-.12-.07,5.45,5.45,0,0,0-1.14,0l-.67,0a.14.14,0,0,0,0-.07,6.34,6.34,0,0,1,.77,0,5.29,5.29,0,0,0,1.19-.13c.14,0,.1-.22,0-.23a2.35,2.35,0,0,0-.59.05,2.09,2.09,0,0,1-.61,0c-.56-.1-1.26-.16-1.54.08a.39.39,0,0,0-.24.45c-.05,0-.09,0-.1.11a14.43,14.43,0,0,0,0,1.47,17.9,17.9,0,0,0,0,3.87,3.61,3.61,0,0,0,0,.87,2.32,2.32,0,0,1,0,.46c-.07,1.25-.13,2.51-.13,3.77,0,1.64.05,3.29.05,4.93,0,.2,0,.39,0,.58a7.39,7.39,0,0,0-.06,1.15l0,.1,0,.14a9.88,9.88,0,0,0,.31,2v.15l.08.16c0,.14.06.27.1.41a3,3,0,0,0,2.24,1.77l.9.13h.95l.19,0c1.7.25,3.84-.24,4-2.15.11-1.15.1-2.35.1-3.51.06-.58.11-1.18.13-1.77l0-.18,0-.43c.06-1,0-2.1,0-3.14l.05-.47,0-.25c0-.23,0-.46,0-.68a17.14,17.14,0,0,0,0-3.43A24.2,24.2,0,0,0,411.83,102.57Z"/><path class="cls-1" d="M438.36,120.65l-.09-.25c0-.5,0-1,0-1.52v-.16c.05-1.78,0-3.56-.07-5.33,0-.24,0-.49-.06-.73l.06-.26-.1-.22c0-.13,0-.25,0-.37l0-.62v-.12c0-1.13.06-2.26.07-3.38,0-1.5.12-3,0-4.55a14.16,14.16,0,0,0,0-2.16,1.4,1.4,0,0,0-.07-1h0v-.06h-.05a.75.75,0,0,0-.9-.22s0,0,0,0a2.2,2.2,0,0,0-.85,0,1,1,0,0,0-.39,0h0a1.28,1.28,0,0,0,.32-.09s0,0,0-.06c.33,0,.66,0,1-.09.06,0,.05-.11,0-.12a2.53,2.53,0,0,0-1.39,0s0,0,0,0a.49.49,0,0,0-.55.29.21.21,0,0,0-.12.14.31.31,0,0,0,0,.09h0V100a.67.67,0,0,0,0,.35h0a0,0,0,0,1,0,0v0a5,5,0,0,0,0,1,13,13,0,0,0,.09,1.4,6.77,6.77,0,0,0,0,.78c0,.56,0,1.13,0,1.71,0,1.75,0,3.44.12,5.18.05.86.07,1.72.11,2.58h0l0,.9c0,1,0,2,0,3,0,.48,0,1,0,1.44,0,.08,0,.15,0,.23l-.06.25.08.42a1,1,0,0,0,0,.17s0,0,0,.06c0,.32,0,.64,0,1a2.23,2.23,0,0,0,.08,1.15v.25h.06a.14.14,0,0,0,.12.06c.32,0,.59.23.91.23s.83,0,1.25,0c.18,0,.4-.17.39-.35h.16l-.08-.42Z"/><path class="cls-1" d="M464.63,99.36c-.14-.32-.61-.32-.9-.21a1.22,1.22,0,0,0-.32,0h0a3,3,0,0,1-.52.06,18.06,18.06,0,0,0-2.55-.07,26.86,26.86,0,0,0-3.23.15l-.66-.11-.65.05a3.73,3.73,0,0,1-.3.26l-.07,1.74.06.49a26.6,26.6,0,0,0,.18,3.69l0,.78v1.69l0,1.66v.05c0,.48,0,1,0,1.43-.13,1.35,0,2.76-.09,4.09a29.16,29.16,0,0,0,.06,3.62l0,.57-.11,1.13.13.76,0,.13c.17.16.34.33.5.51h1.05l1.57-.07,1.13-.14,1.59.07,1.13-.11.86,0,.56,0v0a.26.26,0,0,0,.16-.09.15.15,0,0,0,.06-.1l0,0a4.3,4.3,0,0,0-.11-1.92s0,0,0,0a12,12,0,0,1-.16,1.47l0-.5-.09-.19a3.41,3.41,0,0,0,.05-.42.25.25,0,0,0-.06-.32.24.24,0,0,0-.19-.1s0,0-.05-.07l-.25.07a21.86,21.86,0,0,0-2.29,0c-.75,0-1.51.07-2.26.15l-.38-.09-.13-.94,0-.71,0-.27c0-.46,0-.92,0-1.38l0-.12,0-.17c0-.81,0-1.61-.09-2.42l.08-1.36,0-.44.73-.07h2.09s.08,0,.13,0l.21,0h0a5,5,0,0,0,.53-.11l0-.5,0-.61v-.07a1.19,1.19,0,0,0,.17.45,1.6,1.6,0,0,0,.08.76s.09.07.11,0a3.14,3.14,0,0,0,.21-1.43c0-.39.07-.75-.33-.92a.23.23,0,0,0-.14,0,.15.15,0,0,0-.07,0c-1.1,0-2.25.13-3.35,0a4.36,4.36,0,0,0-.45,0l.05-.18-.13-1.19,0-1.36.09-.87,0-.15c.12-1.22.2-2.45.24-3.68l.66-.12,1.13,0,.6-.14.9.14.74,0,1.34,0H464a1.13,1.13,0,0,1,.32,0l0-.39-.06-.14a3.79,3.79,0,0,0,.09-.54,5.3,5.3,0,0,0,.1.8s0,0,0,0a5.45,5.45,0,0,0,.1-1C464.63,100,464.76,99.68,464.63,99.36Z"/><path class="cls-1" d="M292,99.83a2.37,2.37,0,0,0,0-.46c0-.24-.68-.3-.86-.3a9.71,9.71,0,0,0-1.95.22s0,0,0,0c.42,0,.82.09,1.23.1a2.32,2.32,0,0,1,1,.14l-.44,0h-.65l-1.28.1a.14.14,0,0,0-.2.12c0,1.44.19,2.88.17,4.32l0,.27,0,.22a37.08,37.08,0,0,0,.11,5s.07,0,.07,0v-.73s0,.08,0,.13v.82c0,.83,0,1.67,0,2.51,0,.32,0,.63,0,1l0,.4,0,.08a23.43,23.43,0,0,0,0,3v0l0,.35c0,.17,0,.35,0,.53s0,.28,0,.42-.18.57-.26.86a1.62,1.62,0,0,1-.2.28,3.69,3.69,0,0,1-.75.58l-.16,0-.55,0h-.11l-.36,0a4.66,4.66,0,0,1-1-.38,3.31,3.31,0,0,1-.51-.85v-.11l-.07-.23-.06-.34-.05-.24-.12-.45V117l0-.58c.12-.48.28-1.56-.23-1.68a3,3,0,0,0-2.17,0s0,.05,0,.05a5.54,5.54,0,0,0,1,.1s0,0,0,.07a.07.07,0,0,0,0,.07l-.71,0-.56,0-.07.29h0v0l-.09.34.07.13v0a3.24,3.24,0,0,0,0,1.35,7.25,7.25,0,0,0,.47,2.79v.09l.05,0a.63.63,0,0,1,0,.09c.72,1.2,2.07,1.59,3.35,2a5,5,0,0,0,4.39-1.25,4.43,4.43,0,0,1-.46.73s0,0,0,0a3.07,3.07,0,0,0,1.46-2.32,23.12,23.12,0,0,0,.21-2.53c0-.24.07-.5.1-.74l.08-.2V115a11.48,11.48,0,0,0,0-1.44c0-.51,0-1,0-1.52h0l0-.7-.05-.15c0-.16,0-.32,0-.48a51.9,51.9,0,0,0-.05-6.72c0-.21,0-.42.05-.62A14.14,14.14,0,0,0,292,99.83Zm-2.76,7.71h0v0h0Zm0-.16h0v-.63l0,.15A3.83,3.83,0,0,0,289.22,107.38Z"/><path class="cls-1" d="M458.66,88.62h.08c1.6.71,4,.65,4.78-.65,1-1.71,1-4.68,1-6.6a47.06,47.06,0,0,0,0-6.51c0-1,0-1.94.05-2.84.25-6.69,0-13.22-.32-19.81.08-1.8,0-3.64.15-5.42a29.63,29.63,0,0,0-1.09-11.4s0,0,0,0c-.07-.34-.05-.71-.14-1,0-.07-.14-.08-.15,0-.12.64-.1,1.36-.16,2-1.63-2.67-3.81-2.39-7.1-2.37-4.51,0-4.2,3.53-4.17,7.27,0,7.87-.17,16.62.9,24.39.94,6.9.26,14.53,2.16,21.21a.1.1,0,0,0,.19,0c.17-.58.27-1.2.4-1.79C455.81,87,457,88.62,458.66,88.62Zm-.35-4.23a10.12,10.12,0,0,1-.12,1.06,3.34,3.34,0,0,0,0-1Z"/><path class="cls-1" d="M451.42,120.7c.11-1.59-.07-3.21-.1-4.78,0-.66-.06-1.32-.09-2l0-.74,0-.3c0-.68,0-1.36,0-2,.05-1.26.07-2.53,0-3.78v-1a25.37,25.37,0,0,0,0-4.18c0-.08,0-.17.07-.25l0-.34a7.07,7.07,0,0,0,0-1.46.75.75,0,0,1,0-.15.24.24,0,0,1,0-.08.34.34,0,0,1-.09-.08s0-.08,0-.12,0-.13,0-.15a5,5,0,0,0-1.5-.09,4.06,4.06,0,0,0-1.48.16s0,0,0,0a1.4,1.4,0,0,0,.4.11,1.1,1.1,0,0,1-.3.27l0,.3.09,1,0,.8c-.12,1.65.05,3.37.05,5,0,1.31,0,2.64.08,3.94,0,.2,0,.4,0,.59-.12-.35-.26-.69-.37-1.05s-.29-1-.43-1.49v-.09l-.07-.19-.36-1.4v-.42l-.32-1a41.78,41.78,0,0,0-1.18-5.68V100l-.08-.58,0,0h-.88l-.73,0-.56-.07-.68,0-.24.34v-.32l-.09.83-.08.86.13.83-.05,1,.09.57v.29l0,.35v.15c0,.85-.08,1.68,0,2.53l0,.25,0,1-.05,1,0,.48c0,.09,0,.18,0,.26v0c0,.1,0,.2,0,.31l.08.39c-.08,1.23,0,2.48,0,3.68,0,1.55-.08,3.15,0,4.71v.33c0,.16,0,.33,0,.5v0l-.08.65.07.34a1.62,1.62,0,0,1,0,.22.58.58,0,0,0,0,.36l0,.29,0,0c.07.07.13.14.2.2l.87-.08.65.11.62,0a1.51,1.51,0,0,1,.26-.18l-.06-.56,0-.83-.13-1.11,0-.76.13-1.11,0-1.26-.13-.69c0-.71.07-1.43.11-2.16l0-.24v0c0-1.36,0-2.71,0-4,.3,2,1.22,3.81,1.65,5.75.12.53.28,1,.45,1.57v.12l.09.2c.08.26.17.52.24.79a8.45,8.45,0,0,0,.61,2.06l.19.73.06.29,0,.13,0,.16a11.15,11.15,0,0,1-.42-1.23c-.27-.77-.59-1.52-.84-2.3,0,0,0,0,0,0,.31,1.25.6,2.51.94,3.76a1.14,1.14,0,0,0,.71.87h0l.53,0a1.48,1.48,0,0,0,.69.06l.39,0,.13.06.48-.06a3.59,3.59,0,0,1,.39-.39h0l-.05-.45Zm-6.23-12.07v-.07l0,.08S445.2,108.63,445.19,108.63Z"/><polygon class="cls-1" points="398.66 114.82 397.84 114.96 396.55 114.89 396.59 115.78 396.67 116.69 396.37 117.51 396.33 118.34 396.24 118.63 395.82 119.1 395.52 119.28 394.83 119.49 394.41 119.42 393.77 119.35 393.38 118.92 393.04 118.41 392.87 117.8 392.62 117.08 392.53 116.04 392.19 115.21 392.27 114.71 392.01 114.17 392.01 113.45 392.06 112.7 392.19 111.83 392.19 110.97 392.19 110.46 392.31 109.57 392.19 108.81 392.23 108.31 392.19 107.51 392.23 106.76 392.27 105.82 392.36 105.43 392.4 104.5 392.4 103.88 392.62 103.52 392.75 102.8 393.13 102.44 393.35 101.91 393.99 101.65 394.33 101.62 395.02 101.65 395.36 102.12 395.53 102.44 395.87 102.88 396 103.45 395.96 103.88 396.05 104.39 395.92 104.78 396 105.32 395.96 106.22 397.25 106.26 398.1 106.08 398.74 106.15 398.74 105.25 398.62 104.28 398.74 103.49 398.62 102.69 398.36 101.94 398.31 101.18 398.01 100.57 397.75 100.03 397.23 99.85 396.63 99.42 395.44 99.28 394.5 99.21 393.73 99.21 392.83 99.39 391.96 99.67 391.52 100.14 390.73 100.68 390.3 101.47 389.9 102.12 389.68 102.91 389.59 103.67 389.55 104.5 389.34 105.39 389.59 106.26 389.47 107.23 389.55 107.8 389.47 108.67 389.47 109.53 389.47 110.25 389.38 111.15 389.51 111.9 389.47 112.95 389.51 114.1 389.64 114.96 389.55 115.75 389.77 116.33 389.81 117.15 390.03 118.2 390.3 118.84 390.6 119.78 391.13 120.21 391.65 120.93 392.53 121.29 393.25 121.69 394.19 121.86 394.88 121.9 395.73 121.79 396.46 121.69 397.23 121.18 397.8 120.93 398.18 120.32 398.62 119.96 398.74 118.99 398.96 118.45 398.96 117.69 399 117.01 399.13 116.25 399.05 115.75 399.13 114.92 398.66 114.82"/><path class="cls-1" d="M317.8,102.26c-.05-.28-.12-.56-.19-.83v-.07l-.17-.64-.35-.61,0,0-.15-.27s0,0,0,0a.67.67,0,0,1,.06.15l-.52-.35h-.25a4.11,4.11,0,0,0-2.6-.8c-.05,0-.05.06,0,.08l.65.23-.6-.05-.43.05H313l-.47,0L312,99.1h-.6l-.32.21a3.35,3.35,0,0,0-.64.17,5.48,5.48,0,0,0-1.45.18.11.11,0,0,0-.09.11v0a.14.14,0,0,0-.05.08v.07a.52.52,0,0,0-.15.35h0v0a8,8,0,0,0,0,1.18l0,.68-.1.43.13.94,0,1.15L309,106l.09,1.21-.09.8,0,.37v0l.08.79-.08,1.12.07.38c-.06,1.36.05,2.75.11,4.11l-.09.43.08.86v.8l.05.45c0,.74,0,1.47,0,2.21,0,.08,0,.18,0,.29l0,.1,0,.06a3.15,3.15,0,0,0,0,1,1.18,1.18,0,0,0,.23.69,1,1,0,0,0,.77.19h.54l.55,0h0c.27,0,.55,0,.83,0a0,0,0,0,1,0,0,0,0,0,0,0,.06,0l0-.08h0l0,0h.17c.09,0,.1-.08.07-.14v0s0,0,0,0h0l.11,0-.08-.28v-.07a1.7,1.7,0,0,0,0-.22c0-.31,0-.62,0-.93,0-1.26-.15-2.56-.19-3.77,0-.52,0-1,0-1.54.06-.84.14-1.71.12-2.55l.77-.1.69,0,.69-.19h.31l-1.66.34a.06.06,0,0,0,0,.12,6.92,6.92,0,0,0,3-.61,1.64,1.64,0,0,0,.82-.76l0,0,.12-.1.39-.5.06-.21a3.28,3.28,0,0,0,.22-.67c.11-.47.13-1,.21-1.56a17.91,17.91,0,0,0-.08-4.51C318,103.05,317.9,102.65,317.8,102.26Zm-2.62,3.41-.07.62v.61l0,.15a5.33,5.33,0,0,0,0,.57l-.13.58,0,.11a4.29,4.29,0,0,0-.14.62s0,0,0,0a3.88,3.88,0,0,0-.14.45l-.48.23-.56.07-.6,0h-1l0-.22c0-.83-.07-1.71-.11-2.53l.07-.56-.08-.4a24.48,24.48,0,0,0-.09-3.83v-.38l.82-.1.95-.11.56.11.56.43.13.43.13.79,0,.1c0,.33.08.65.13,1l0,.36.12.66Z"/><path class="cls-1" d="M309.14,121h.06a0,0,0,0,0,0,0h-.06A0,0,0,0,0,309.14,121Z"/><path class="cls-1" d="M330.1,120.35l-.17-1,0-.07a10,10,0,0,0-.18-1.69c0-.16,0-.32-.06-.47v-.57l-.12-.62c0-.37-.06-.75-.1-1.12s-.09-.85-.14-1.27v-.09l-.1-.66a2.06,2.06,0,0,0,0-.26v-.62l-.16-.6c0-.16,0-.31-.07-.47a15.67,15.67,0,0,0-.27-2.78l0-.25-.18-.72a2.51,2.51,0,0,1,0-.27V106l-.09-.9-.12-1.54-.05-.47-.18-.6c0-.26-.06-.51-.1-.76l0-.55-.12-.63a1.4,1.4,0,0,0-.47-1.33c-.6-.44-1.44-.23-2.11-.19,0,0,0,0,0,0a6.12,6.12,0,0,1,.95.18h-.14c-.37,0-.75,0-1.12,0l-.4-.08-.32.09c-.27,0-.54,0-.81,0a.17.17,0,0,0-.13.07l-.2,0a.46.46,0,0,1-.07.07l-.18.65a2.91,2.91,0,0,0-.3,1.45c0,.26-.06.54-.09.81l-.1.22v.86c-.07.56-.16,1.1-.25,1.66l-.23.86-.17,1.58v0c-.1,1-.14,2.07-.32,3.08a14.36,14.36,0,0,0-.21,2.1l-.07.16,0,1.33v1.16l0,.65c-.07.36-.13.72-.17,1.1l-.15.62-.09,1.08.13,1.18-.3,1.12v.42s.05,0,.08.07c.08.36.57.38.89.39a5.3,5.3,0,0,0,1.64-.18h0a.23.23,0,0,0,.16-.28s0,0,0,0l.08-.07.05-1.42a10.29,10.29,0,0,1-.08,1.92,0,0,0,1,0,.05,0,8.15,8.15,0,0,0,.24-2.21c0-1,0-1.95,0-2.92,0-.17.05-.33.06-.49l.19,0,.48,0,1.26.08c.4,0,.82.08,1.23.07,0,.42.13.83.17,1.19.08.56.1,1.14.15,1.72,0,.27.05.54.08.79s0,.63.05.93-.13.46,0,.57c.32.26.86.06,1.23.07a5.36,5.36,0,0,0,1.55,0c.27-.08.2-.47.12-.72Zm-4-6.5a.5.5,0,0,0-.34,0l-.14,0-1,.11-.86-.07v-.29l.08-.93.22-.87-.05-.48c.08-.6.14-1.19.16-1.78l0-.14.13-.65v-.33c.07-.39.13-.79.2-1.18v-.09c.24-1.42.47-2.84.64-4.26l0-.13.11-.06.13.94.13,1v1l.17,1,0,.83.14.58.08.53c0,.42.08.82.13,1.23v.72l.13.49c.05.73.13,1.5.24,2.26l0,.16.07.35c0,.06,0,.12,0,.17A1.1,1.1,0,0,1,326.13,113.85Z"/><path class="cls-1" d="M298.3,86.64c-1.94-5.06-5.68-8.64-8.63-13.06-1.22-1.84-2.56-3.64-3.85-5.44a71.23,71.23,0,0,0-5.62-8.92,5.3,5.3,0,0,0,1.13-1.29c.84-1.6,2.68-3.36,3.8-4.83,1.88-2.47,3.42-5.17,5.42-7.55a14.28,14.28,0,0,0,2-2.78c.58-.55,1.16-1.08,1.68-1.68a6.24,6.24,0,0,0,.4-.67A9.39,9.39,0,0,0,296,38.53a13.05,13.05,0,0,0,2.81-3.36.39.39,0,0,0-.52-.52,10.89,10.89,0,0,0-2.12,1.71c-.24.18-.49.36-.73.52a3.82,3.82,0,0,0,.3-1.29,1.54,1.54,0,0,0-1.53-1.53c-2.21,0-4.32-.31-6.61,0-1.23.18-2.12,1.45-2.87,2.82a12.28,12.28,0,0,0-1.24,1.37,61.56,61.56,0,0,0-3.67,5.1c-2.4,3.81-5.37,7.24-7.95,10.94.21-4.74.67-10.26-.11-14.85a11.73,11.73,0,0,0-.27-3.85c-1.12-3.47-6-2.16-8.61-2a1.68,1.68,0,0,0-1.47,1.18c-.08,0-.17,0-.23.12-1.95,2.37-1.28,5.4-1.32,8.39-.07,5.76.12,11.57.47,17.33.39,6.78.45,13.54.62,20.34a12.91,12.91,0,0,0,.69,4.24c0,1.62,1.67,2.93,3.21,3.45.21.08.44-.06.67-.17a2.7,2.7,0,0,0,3.52-1.33c.1.55.16,1.12.27,1.67a.51.51,0,0,0,1,0,161.83,161.83,0,0,0,1.59-24.18c.14.18.27.38.38.54,2.06,3.17,4.11,6.35,6.19,9.51,2.31,3.5,4.53,7.46,7.55,10.52a3.23,3.23,0,0,0,.87,1.18,7.44,7.44,0,0,0,1.86,1.14l.08.08a1.53,1.53,0,0,0,1,.23c.14,0,.26.11.41.12,1.26.09,5.19.37,5.12-1.74a8.55,8.55,0,0,0,1.68,1.36C297.65,87.94,298.56,87.34,298.3,86.64Z"/><path class="cls-1" d="M305.37,120.35l-.17-1,0-.07a10,10,0,0,0-.18-1.69c0-.16,0-.32-.06-.47v-.57l-.12-.62c0-.37-.06-.75-.1-1.12s-.09-.85-.13-1.27v-.09l-.09-.66c0-.09,0-.18,0-.26v-.62l-.16-.6c0-.16-.05-.31-.07-.47A15.67,15.67,0,0,0,304,108l0-.25-.18-.72c0-.09,0-.18,0-.27V106l-.09-.9-.12-1.54-.05-.47-.18-.6c0-.26-.06-.51-.1-.76l0-.55-.11-.63a1.44,1.44,0,0,0-.47-1.33c-.61-.44-1.44-.23-2.12-.19,0,0,0,0,0,0a5.91,5.91,0,0,1,.95.18h-.14c-.37,0-.74,0-1.12,0l-.4-.08-.32.09c-.27,0-.54,0-.81,0a.19.19,0,0,0-.13.07l-.2,0a.23.23,0,0,1-.07.07l-.18.65a2.91,2.91,0,0,0-.3,1.45c0,.26-.06.54-.08.81l-.11.22v.86c-.06.56-.16,1.1-.25,1.66l-.22.86-.18,1.58v0c-.1,1-.14,2.07-.32,3.08a14.36,14.36,0,0,0-.21,2.1l-.07.16,0,1.33v1.16l0,.65c-.07.36-.13.72-.17,1.1l-.15.62-.09,1.08L296,120l-.3,1.12v.42s.05,0,.08.07c.08.36.57.38.9.39a5.17,5.17,0,0,0,1.62-.18h0a.23.23,0,0,0,.16-.28s0,0,0,0l.07-.07.06-1.42a10.29,10.29,0,0,1-.08,1.92,0,0,0,1,0,0,0,7.77,7.77,0,0,0,.24-2.21c0-1,0-1.95,0-2.92,0-.17.05-.33.06-.49l.19,0,.48,0,1.26.08c.4,0,.82.08,1.23.07,0,.42.13.83.18,1.19.07.56.09,1.14.14,1.72,0,.27.05.54.08.79s0,.63.05.93-.13.46,0,.57c.32.26.86.06,1.23.07a5.36,5.36,0,0,0,1.55,0c.28-.08.2-.47.12-.72Zm-4-6.5a.5.5,0,0,0-.34,0l-.14,0-1,.11-.86-.07v-.29l.08-.93.22-.87-.05-.48c.08-.6.14-1.19.16-1.78l0-.14.13-.65v-.33c.07-.39.13-.79.2-1.18l0,0v0c.24-1.42.48-2.84.64-4.26l0-.13.1-.06.13.94.13,1v1l.17,1,.05.83.13.58.08.53c0,.42.08.82.13,1.23v.72l.13.49c.06.73.13,1.5.24,2.26l0,.16.07.35c0,.06,0,.12,0,.17A1.1,1.1,0,0,1,301.4,113.85Z"/><path class="cls-1" d="M368.39,117.74a3.81,3.81,0,0,0-.24-1,7.35,7.35,0,0,0-.86-2.21v0l0,0a10.79,10.79,0,0,0-.95-1.37l-.19-.35-.52-.58-.39-.76-.27-.19c-.21-.32-.42-.63-.65-.94l0,0-.38-.65-.47-.65-.38-.4-.21-.46-.25-.23-.07-.12-.26-.49,0-.35-.38-.57-.18-.47-.17-.58-.12-.12a5.72,5.72,0,0,1-.23-1l.05-.13-.06-.26c0-.9.44-1.58,1.76-1.57a1.5,1.5,0,0,1,1.25.59,3.6,3.6,0,0,1,.12.44c.13.66.13,1.36.22,2,.06.46-.14.94.09,1.38v.16l.13,0c.3.32.74.13,1.13.24a1.94,1.94,0,0,0,.54,0h0c-.54.07-1-.12-1.52.15a0,0,0,0,0,0,.08,2.29,2.29,0,0,0,2.14.18.62.62,0,0,0,.29-.45.74.74,0,0,0,.11-.25,1.08,1.08,0,0,0,0-.36,5.91,5.91,0,0,0,0-.74c0-.8-.11-1.62-.16-2.42a3.93,3.93,0,0,0-.06-.48v-.3l-.08-.75-.31-.76-.34-.43-.65-.54-.39-.36-.56-.14-.85-.07-.93,0h-.17l-.49,0a3.41,3.41,0,0,0-1.3.13h0a3.37,3.37,0,0,0-.65.25c-1.06.52-2.06,1.2-2.12,2.32l-.18.26-.08,1.08,0,.72.17,1.22.18.83.2.22a7.19,7.19,0,0,0,1.1,1.82v.08l.2.21c.2.4.4.79.62,1.18h0a8.37,8.37,0,0,0,.71,1.08,7,7,0,0,0,.59.64c.37.57.75,1.13,1.1,1.74a33.46,33.46,0,0,1,1.89,3.79,4,4,0,0,1,.19.62c.1,1.13-.21,2.25-1.69,1.59-.56-.26-.72-.6-1.17-.67a1.63,1.63,0,0,1-.13-.39l0-.53-.11-.2c-.05-.53-.13-1.06-.23-1.59a1.43,1.43,0,0,0,.06-.21,1.12,1.12,0,0,0-.06-.65v-.05h0a.79.79,0,0,0-.3-.35,1.34,1.34,0,0,0-.77-.09c-.18,0-.22,0-.42,0-.64.06-1.1.13-1.15.54H359l.09,1.34,0,.36c-.08-.25-.16-.49-.26-.73,0,0,0,0,0,0a7.06,7.06,0,0,0,.39,3,3.35,3.35,0,0,0,1.88,2.5,4.41,4.41,0,0,0,.59.26l.61.3.95,0,1,0h.17l.48,0a1.62,1.62,0,0,0,1.72-.65l.34-.15.48-.5.6-.86v-.23A2.73,2.73,0,0,0,368.39,117.74Z"/><path class="cls-1" d="M360.82,87.91c.52-1.36.15-3.26-.31-5.09-.22-6.08-2-12.15-2.72-18.14-.07-.53-.15-1.07-.23-1.61h0a18.17,18.17,0,0,0-.47-3.26,61.63,61.63,0,0,0-1.89-8.22c-.55-4.54-.86-9.39-2.09-13.84a3.85,3.85,0,0,0-.84-2.68,2.25,2.25,0,0,1-.08-.24.68.68,0,0,0-.65-.41,1.92,1.92,0,0,0-1.11-.52,13.34,13.34,0,0,0-3.55.26,19.07,19.07,0,0,0-3.84-.09c-1.08-.05-2.14,0-3.21,0a4.6,4.6,0,0,0-2.49,0c-.27,0-.54,0-.79,0a1.92,1.92,0,0,0-1.15.57,2,2,0,0,0-1.14,1.06A29.48,29.48,0,0,0,331.79,45c-.18.6-.33,1.2-.48,1.79a57.84,57.84,0,0,0-2.45,12,25.74,25.74,0,0,1-.39,2.63c-1,3.26-1.53,6.82-2.23,9.93-1,4.42-2.15,9.29-2,13.91a3.85,3.85,0,0,0,.12,2.35.26.26,0,0,0,.4.05h0a.6.6,0,0,0,.56-.41,2.12,2.12,0,0,0,1.13.81c-.82-.22.22.14.51.34a3.27,3.27,0,0,0,2.38.21c1.82-.22,3,.1,4.12-1.61a1.82,1.82,0,0,0,.2-.73,19.11,19.11,0,0,0,.06,2,.2.2,0,0,0,.4,0c1.12-3.73,1.49-7.59,2.5-11.32,1.3,0,2.61-.07,3.86-.07a75.75,75.75,0,0,0,8.12,0c.19,1.47.51,2.93.79,4.38s.47,2.73.83,4.06c.2.73,0,1.17.24.53a2.41,2.41,0,0,0,.07,1.13,1.57,1.57,0,0,0,1.5,1.14c1.65.17,3.18.27,4.41-.77a16.47,16.47,0,0,0,3.28,1.12A.94.94,0,0,0,360.82,87.91ZM333.56,85c0-.06,0-.12,0-.17a2.43,2.43,0,0,1,0,.27A.3.3,0,0,0,333.56,85Zm7.76-16.15c-.89,0-1.83,0-2.77,0,1-4,1-8.45,1.89-12.4a48.09,48.09,0,0,0,1.61-9c.33-1.41.63-2.82,1-4.18a23.43,23.43,0,0,0,.76,4,101.1,101.1,0,0,0,2.46,13.68,67.53,67.53,0,0,1,1.21,7.81C345.42,68.65,343.31,68.81,341.32,68.83Zm8.11-28.22a2.22,2.22,0,0,0,.25-.35c0,.26,0,.51,0,.77C349.61,40.89,349.53,40.74,349.43,40.61Zm7.78,42.52s0,0,0,0l0,.17A.93.93,0,0,1,357.21,83.13Zm.34,1.87a3.49,3.49,0,0,0-.05-.72l.21.82Zm.56,1.66s0-.06.05-.08a.5.5,0,0,0,.1.11A.66.66,0,0,1,358.11,86.66Z"/><path class="cls-1" d="M354.54,99.15a1.24,1.24,0,0,0-.32,0h0a3.19,3.19,0,0,1-.53.06,18,18,0,0,0-2.55-.07,26.86,26.86,0,0,0-3.23.15l-.66-.11-.65.05-.29.26-.08,1.74.07.49a25.13,25.13,0,0,0,.18,3.69l0,.78v1.69l0,1.66v.05c0,.48,0,1,0,1.43-.13,1.35,0,2.76-.09,4.09a29.16,29.16,0,0,0,.06,3.62c0,.19,0,.38,0,.57l-.12,1.13.13.76,0,.13a6.14,6.14,0,0,1,.51.51h1l1.58-.07,1.12-.14,1.59.07,1.13-.11.86,0,.56,0v0a.24.24,0,0,0,.15-.09.12.12,0,0,0,.06-.1l0,0a4.3,4.3,0,0,0-.11-1.92s0,0,0,0a12.08,12.08,0,0,1-.17,1.47l0-.5-.1-.19a2.18,2.18,0,0,0,.05-.42.31.31,0,0,0-.24-.42l-.06-.07-.24.07a22.05,22.05,0,0,0-2.3,0c-.74,0-1.5.07-2.26.15l-.38-.09-.13-.94.05-.71-.05-.27c0-.46,0-.92,0-1.38l0-.12,0-.17c0-.81-.05-1.61-.1-2.42l.08-1.36.05-.44.73-.07H352a.4.4,0,0,1,.13,0l.2,0h0a4.52,4.52,0,0,0,.53-.11l0-.5-.05-.61v-.07a1.19,1.19,0,0,0,.17.45,1.6,1.6,0,0,0,.08.76s.09.07.12,0a3.13,3.13,0,0,0,.2-1.43c0-.39.07-.75-.33-.92a.24.24,0,0,0-.14,0,.15.15,0,0,0-.07,0c-1.1,0-2.25.13-3.35,0a4.16,4.16,0,0,0-.45,0l.05-.18-.13-1.19,0-1.36.09-.87,0-.15c.12-1.22.2-2.45.24-3.68l.66-.12,1.13,0,.6-.14.91.14.73,0,1.34,0h.11a1.19,1.19,0,0,1,.33,0l0-.39,0-.14q0-.24.09-.54a3.58,3.58,0,0,0,.1.8s0,0,0,0a6.52,6.52,0,0,0,.11-1c0-.33.13-.6,0-.92S354.83,99,354.54,99.15Z"/><path class="cls-1" d="M342.53,120.7c.1-1.59-.07-3.21-.11-4.78,0-.66-.05-1.32-.08-2l0-.74-.06-.3c0-.68,0-1.36.05-2a36.65,36.65,0,0,0,0-3.78l0-.18V106a25.37,25.37,0,0,0,0-4.18l.06-.25,0-.34a6.44,6.44,0,0,0,0-1.46v-.15a.24.24,0,0,1,0-.08.3.3,0,0,1-.08-.08s0-.08,0-.12a.09.09,0,0,0,0-.15,5,5,0,0,0-1.49-.09,4.14,4.14,0,0,0-1.49.16,0,0,0,0,0,0,0,1.49,1.49,0,0,0,.4.11,1.06,1.06,0,0,1-.29.27l0,.3.09,1,0,.8c-.13,1.65.05,3.37.05,5,0,1.31,0,2.64.07,3.94,0,.2,0,.4,0,.59-.12-.35-.26-.69-.37-1.05s-.28-1-.42-1.49v-.09l-.07-.19c-.13-.46-.24-.93-.36-1.4v-.42l-.33-1a43.33,43.33,0,0,0-1.17-5.68V100l-.08-.58,0,0h-.88l-.74,0-.56-.07-.67,0-.24.34c0,.14-.05.28-.07.45h0a30.26,30.26,0,0,1,.07,3.56l0,.08,0,.35v.15c0,.85-.08,1.68,0,2.53l0,.25,0,1,0,1,0,.48c0,.19,0,.39,0,.58l.09.39c-.08,1.23,0,2.48,0,3.68,0,1.55-.07,3.15.05,4.71,0,.11,0,.22,0,.33s0,.33,0,.5v0l-.09.65.08.34a1.64,1.64,0,0,1,0,.22.64.64,0,0,0,0,.36l-.05.29.05,0,.21.2.87-.08.65.11.62,0a1.2,1.2,0,0,1,.26-.18l-.06-.56,0-.83-.13-1.11,0-.76.13-1.11,0-1.26-.13-.69c0-.71.07-1.43.1-2.16l0-.24,0,0a39.05,39.05,0,0,0,0-4c.3,2,1.22,3.81,1.66,5.75.12.53.28,1,.44,1.57v.12l.09.2c.08.26.16.52.23.79a8.91,8.91,0,0,0,.61,2.06l.2.73.06.29,0,.13,0,.16a9.39,9.39,0,0,1-.42-1.23c-.27-.77-.59-1.52-.84-2.3,0,0,0,0,0,0,.31,1.25.6,2.51.93,3.76.11.4.38.81.71.87h0l.53,0a1.44,1.44,0,0,0,.68.06l.39,0,.14.06.48-.06a4.68,4.68,0,0,1,.38-.39h0l0-.45Zm-6.23-12.07v-.07l0,.08Z"/></g></g></svg>