<svg xmlns="http://www.w3.org/2000/svg" viewBox="0 0 490.1 293.33"><defs><style>.cls-1{fill:#d4d4d4;}</style></defs><title>자산 1메뉴</title><g id="레이어_2" data-name="레이어 2"><g id="Layer_1" data-name="Layer 1"><path class="cls-1" d="M312,204.41c-35,0-62.72-16.42-89.5-32.29-26.58-15.76-54.07-32.05-88.6-32.05s-62,16.29-88.61,32c-14.24,8.45-29,17.18-44.65,23.34L0,193.83c15.55-6.11,30.22-14.81,44.4-23.22,26.79-15.87,54.48-32.29,89.5-32.29s62.71,16.42,89.49,32.29c26.58,15.76,54.07,32,88.61,32s62-16.29,88.6-32c26.78-15.87,54.48-32.29,89.5-32.29v1.75c-34.54,0-62,16.29-88.61,32.05C374.71,188,347,204.41,312,204.41Z"/><path class="cls-1" d="M312,194.52c-35,0-62.72-16.41-89.5-32.28-26.58-15.76-54.07-32.05-88.6-32.05s-62,16.29-88.61,32c-14.24,8.45-29,17.18-44.65,23.34L0,184c15.55-6.11,30.22-14.81,44.4-23.22,26.79-15.87,54.48-32.29,89.5-32.29s62.71,16.42,89.49,32.29C250,176.49,277.46,192.78,312,192.78s62-16.29,88.6-32.05c26.78-15.87,54.48-32.29,89.5-32.29v1.75c-34.54,0-62,16.29-88.61,32.05C374.71,178.11,347,194.52,312,194.52Z"/><path class="cls-1" d="M312,184.64c-35,0-62.72-16.41-89.5-32.29-26.58-15.75-54.07-32-88.6-32s-62,16.29-88.61,32c-14.24,8.45-29,17.18-44.65,23.34L0,174.07c15.55-6.11,30.22-14.81,44.4-23.22,26.79-15.87,54.48-32.29,89.5-32.29s62.71,16.42,89.49,32.29C250,166.61,277.46,182.9,312,182.9s62-16.29,88.6-32.05c26.78-15.87,54.48-32.29,89.5-32.29v1.75c-34.54,0-62,16.29-88.61,32C374.71,168.23,347,184.64,312,184.64Z"/><path class="cls-1" d="M312,174.76c-35,0-62.72-16.41-89.5-32.29-26.58-15.75-54.07-32-88.6-32s-62,16.29-88.61,32c-14.24,8.45-29,17.18-44.65,23.34L0,164.19c15.55-6.12,30.22-14.81,44.4-23.22,26.79-15.87,54.48-32.29,89.5-32.29S196.61,125.1,223.39,141C250,156.73,277.46,173,312,173s62-16.29,88.6-32.05c26.78-15.87,54.48-32.29,89.5-32.29v1.75c-34.54,0-62,16.29-88.61,32C374.71,158.35,347,174.76,312,174.76Z"/><path class="cls-1" d="M312,164.88c-35,0-62.72-16.41-89.5-32.29-26.58-15.75-54.07-32-88.6-32s-62,16.29-88.61,32C31.05,141,16.32,149.77.64,155.93L0,154.31c15.55-6.12,30.22-14.81,44.4-23.22C71.19,115.22,98.88,98.8,133.9,98.8s62.71,16.42,89.49,32.29c26.58,15.76,54.07,32,88.61,32s62-16.29,88.6-32c26.78-15.87,54.48-32.29,89.5-32.29v1.75c-34.54,0-62,16.29-88.61,32C374.71,148.47,347,164.88,312,164.88Z"/><path class="cls-1" d="M312,155c-35,0-62.72-16.41-89.5-32.29-26.58-15.75-54.07-32-88.6-32s-62,16.29-88.61,32c-14.24,8.45-29,17.18-44.65,23.34L0,144.43c15.55-6.12,30.22-14.81,44.4-23.22,26.79-15.87,54.48-32.29,89.5-32.29s62.71,16.42,89.49,32.29C250,137,277.46,153.26,312,153.26s62-16.29,88.6-32c26.78-15.87,54.48-32.29,89.5-32.29v1.75c-34.54,0-62,16.29-88.61,32C374.71,138.59,347,155,312,155Z"/><path class="cls-1" d="M312,145.12c-35,0-62.72-16.41-89.5-32.29-26.58-15.75-54.07-32-88.6-32s-62,16.29-88.61,32c-14.24,8.45-29,17.18-44.65,23.34L0,134.55c15.55-6.12,30.22-14.81,44.4-23.22C71.19,95.46,98.88,79,133.9,79s62.71,16.42,89.49,32.29C250,127.09,277.46,143.38,312,143.38s62-16.29,88.6-32C427.38,95.46,455.08,79,490.1,79v1.75c-34.54,0-62,16.29-88.61,32C374.71,128.71,347,145.12,312,145.12Z"/><path class="cls-1" d="M312,135.24c-35,0-62.72-16.41-89.5-32.29-26.58-15.75-54.07-32-88.6-32s-62,16.29-88.61,32c-14.24,8.45-29,17.18-44.65,23.34L0,124.67c15.55-6.12,30.22-14.81,44.4-23.22,26.79-15.87,54.48-32.29,89.5-32.29s62.71,16.42,89.49,32.29C250,117.21,277.46,133.5,312,133.5s62-16.29,88.6-32c26.78-15.87,54.48-32.29,89.5-32.29v1.75c-34.54,0-62,16.29-88.61,32C374.71,118.83,347,135.24,312,135.24Z"/><path class="cls-1" d="M312,125.36c-35,0-62.72-16.41-89.5-32.29-26.58-15.75-54.07-32-88.6-32s-62,16.29-88.61,32c-14.24,8.45-29,17.18-44.65,23.34L0,114.78c15.55-6.11,30.22-14.8,44.4-23.21C71.19,75.7,98.88,59.28,133.9,59.28s62.71,16.42,89.49,32.29C250,107.33,277.46,123.62,312,123.62s62-16.29,88.6-32.05c26.78-15.87,54.48-32.29,89.5-32.29V61c-34.54,0-62,16.29-88.61,32C374.71,109,347,125.36,312,125.36Z"/><path class="cls-1" d="M312,115.48c-35,0-62.72-16.41-89.5-32.29-26.58-15.75-54.07-32-88.6-32s-62,16.29-88.61,32c-14.24,8.44-29,17.18-44.65,23.34L0,104.9c15.55-6.11,30.22-14.8,44.4-23.21C71.19,65.82,98.88,49.4,133.9,49.4s62.71,16.42,89.49,32.29C250,97.45,277.46,113.74,312,113.74s62-16.29,88.6-32c26.78-15.87,54.48-32.29,89.5-32.29v1.75c-34.54,0-62,16.29-88.61,32C374.71,99.07,347,115.48,312,115.48Z"/><path class="cls-1" d="M312,105.6c-35,0-62.72-16.41-89.5-32.29-26.58-15.75-54.07-32-88.6-32s-62,16.29-88.61,32C31.05,81.75,16.32,90.49.64,96.65L0,95c15.55-6.11,30.22-14.8,44.4-23.21,26.79-15.87,54.48-32.29,89.5-32.29s62.71,16.42,89.49,32.29C250,87.57,277.46,103.86,312,103.86s62-16.29,88.6-32c26.78-15.87,54.48-32.29,89.5-32.29v1.75c-34.54,0-62,16.29-88.61,32C374.71,89.19,347,105.6,312,105.6Z"/><path class="cls-1" d="M312,95.72c-35,0-62.72-16.41-89.5-32.29-26.58-15.75-54.07-32-88.6-32s-62,16.3-88.61,32.05C31.05,71.87,16.32,80.6.64,86.77L0,85.14C15.55,79,30.22,70.34,44.4,61.93c26.79-15.87,54.48-32.29,89.5-32.29s62.71,16.42,89.49,32.29C250,77.69,277.46,94,312,94s62-16.29,88.6-32.05c26.78-15.87,54.48-32.29,89.5-32.29v1.74c-34.54,0-62,16.3-88.61,32.05C374.71,79.31,347,95.72,312,95.72Z"/><path class="cls-1" d="M312,85.84c-35,0-62.72-16.41-89.5-32.29-26.58-15.75-54.07-32-88.6-32s-62,16.3-88.61,32.05C31.05,62,16.32,70.72.64,76.89L0,75.26c15.55-6.11,30.22-14.8,44.4-23.21,26.79-15.87,54.48-32.29,89.5-32.29s62.71,16.42,89.49,32.29C250,67.81,277.46,84.1,312,84.1s62-16.29,88.6-32c26.78-15.87,54.48-32.29,89.5-32.29V21.5c-34.54,0-62,16.3-88.61,32.05C374.71,69.43,347,85.84,312,85.84Z"/><path class="cls-1" d="M312,76c-35,0-62.72-16.41-89.5-32.29-26.58-15.75-54.07-32.05-88.6-32.05s-62,16.3-88.61,32.05C31.05,52.11,16.32,60.84.64,67L0,65.38c15.55-6.11,30.22-14.8,44.4-23.21C71.19,26.3,98.88,9.88,133.9,9.88s62.71,16.42,89.49,32.29C250,57.93,277.46,74.22,312,74.22s62-16.29,88.6-32C427.38,26.3,455.08,9.88,490.1,9.88v1.74c-34.54,0-62,16.3-88.61,32.05C374.71,59.55,347,76,312,76Z"/><path class="cls-1" d="M312,66.08c-35,0-62.72-16.42-89.5-32.29-26.58-15.75-54.07-32-88.6-32S71.87,18,45.29,33.79C31.05,42.23,16.32,51,.64,57.13L0,55.5c15.55-6.11,30.22-14.8,44.4-23.21C71.19,16.42,98.88,0,133.9,0s62.71,16.42,89.49,32.29C250,48,277.46,64.34,312,64.34S374,48,400.6,32.29C427.38,16.42,455.08,0,490.1,0V1.74c-34.54,0-62,16.3-88.61,32.05C374.71,49.66,347,66.08,312,66.08Z"/><path class="cls-1" d="M312,234.41c-35,0-62.72-16.42-89.5-32.29-26.58-15.76-54.07-32.05-88.6-32.05s-62,16.29-88.61,32.05c-14.24,8.44-29,17.17-44.65,23.33L0,223.83c15.55-6.11,30.22-14.81,44.4-23.21,26.79-15.88,54.48-32.29,89.5-32.29s62.71,16.41,89.49,32.29c26.58,15.75,54.07,32,88.61,32s62-16.29,88.6-32c26.78-15.88,54.48-32.29,89.5-32.29v1.74c-34.54,0-62,16.29-88.61,32.05C374.71,218,347,234.41,312,234.41Z"/><path class="cls-1" d="M312,224.53c-35,0-62.72-16.42-89.5-32.29-26.58-15.76-54.07-32.05-88.6-32.05s-62,16.29-88.61,32.05c-14.24,8.44-29,17.17-44.65,23.33L0,214c15.55-6.11,30.22-14.81,44.4-23.21,26.79-15.88,54.48-32.29,89.5-32.29s62.71,16.41,89.49,32.29c26.58,15.75,54.07,32,88.61,32s62-16.29,88.6-32c26.78-15.88,54.48-32.29,89.5-32.29v1.74c-34.54,0-62,16.29-88.61,32.05C374.71,208.11,347,224.53,312,224.53Z"/><path class="cls-1" d="M312,214.65c-35,0-62.72-16.42-89.5-32.29-26.58-15.76-54.07-32.05-88.6-32.05s-62,16.29-88.61,32.05c-14.24,8.44-29,17.17-44.65,23.33L0,204.07c15.55-6.11,30.22-14.81,44.4-23.21,26.79-15.88,54.48-32.29,89.5-32.29s62.71,16.41,89.49,32.29c26.58,15.75,54.07,32,88.61,32s62-16.29,88.6-32c26.78-15.88,54.48-32.29,89.5-32.29v1.74c-34.54,0-62,16.29-88.61,32.05C374.71,198.23,347,214.65,312,214.65Z"/><path class="cls-1" d="M312,263.69c-35,0-62.72-16.42-89.5-32.29-26.58-15.76-54.07-32.05-88.6-32.05s-62,16.29-88.61,32.05c-14.24,8.44-29,17.17-44.65,23.33L0,253.11C15.55,247,30.22,238.3,44.4,229.9c26.79-15.88,54.48-32.29,89.5-32.29S196.61,214,223.39,229.9c26.58,15.75,54.07,32,88.61,32s62-16.29,88.6-32c26.78-15.88,54.48-32.29,89.5-32.29v1.74c-34.54,0-62,16.29-88.61,32.05C374.71,247.27,347,263.69,312,263.69Z"/><path class="cls-1" d="M312,253.81c-35,0-62.72-16.42-89.5-32.29-26.58-15.76-54.07-32.05-88.6-32.05s-62,16.29-88.61,32.05C31.05,230,16.32,238.69.64,244.85L0,243.23c15.55-6.11,30.22-14.81,44.4-23.21,26.79-15.88,54.48-32.29,89.5-32.29s62.71,16.41,89.49,32.29c26.58,15.75,54.07,32,88.61,32s62-16.29,88.6-32c26.78-15.88,54.48-32.29,89.5-32.29v1.74c-34.54,0-62,16.29-88.61,32.05C374.71,237.39,347,253.81,312,253.81Z"/><path class="cls-1" d="M312,243.93c-35,0-62.72-16.42-89.5-32.29-26.58-15.76-54.07-32-88.6-32s-62,16.29-88.61,32C31.05,220.08,16.32,228.81.64,235L0,233.35c15.55-6.11,30.22-14.81,44.4-23.21,26.79-15.88,54.48-32.29,89.5-32.29s62.71,16.41,89.49,32.29c26.58,15.75,54.07,32,88.61,32s62-16.29,88.6-32c26.78-15.88,54.48-32.29,89.5-32.29v1.74c-34.54,0-62,16.29-88.61,32C374.71,227.51,347,243.93,312,243.93Z"/><path class="cls-1" d="M312,293.33c-35,0-62.72-16.42-89.5-32.29C195.92,245.28,168.43,229,133.9,229s-62,16.29-88.61,32.05c-14.24,8.44-29,17.17-44.65,23.33L0,282.75c15.55-6.11,30.22-14.8,44.4-23.21,26.79-15.88,54.48-32.29,89.5-32.29s62.71,16.41,89.49,32.29c26.58,15.75,54.07,32,88.61,32s62-16.29,88.6-32c26.78-15.88,54.48-32.29,89.5-32.29V229c-34.54,0-62,16.29-88.61,32.05C374.71,276.91,347,293.33,312,293.33Z"/><path class="cls-1" d="M312,283.45c-35,0-62.72-16.42-89.5-32.29-26.58-15.76-54.07-32-88.6-32s-62,16.29-88.61,32c-14.24,8.44-29,17.17-44.65,23.33L0,272.87c15.55-6.11,30.22-14.8,44.4-23.21,26.79-15.88,54.48-32.29,89.5-32.29s62.71,16.41,89.49,32.29c26.58,15.75,54.07,32,88.61,32s62-16.29,88.6-32c26.78-15.88,54.48-32.29,89.5-32.29v1.74c-34.54,0-62,16.29-88.61,32C374.71,267,347,283.45,312,283.45Z"/><path class="cls-1" d="M312,273.57c-35,0-62.72-16.42-89.5-32.29-26.58-15.76-54.07-32.05-88.6-32.05s-62,16.29-88.61,32.05c-14.24,8.44-29,17.17-44.65,23.33L0,263c15.55-6.11,30.22-14.8,44.4-23.21,26.79-15.88,54.48-32.29,89.5-32.29s62.71,16.41,89.49,32.29c26.58,15.75,54.07,32,88.61,32s62-16.29,88.6-32c26.78-15.88,54.48-32.29,89.5-32.29v1.74c-34.54,0-62,16.29-88.61,32.05C374.71,257.15,347,273.57,312,273.57Z"/></g></g></svg>